<?xml version="1.0" encoding="UTF-8"?>
<svg version="1.1" xmlns="http://www.w3.org/2000/svg" width="1128" height="168">
<path d="M0 0 C372.24 0 744.48 0 1128 0 C1128 55.44 1128 110.88 1128 168 C755.76 168 383.52 168 0 168 C0 112.56 0 57.12 0 0 Z " fill="#103653" transform="translate(0,0)"/>
<path d="M0 0 C47.45802186 -0.2289237 94.91598525 -0.40511425 142.37445046 -0.51065329 C147.97823155 -0.52316026 153.58201155 -0.53610349 159.18579102 -0.54931641 C160.30139553 -0.55193951 161.41700004 -0.55456261 162.56641074 -0.55726521 C180.62662359 -0.60077015 198.68651791 -0.67961114 216.74654184 -0.77152796 C235.27990846 -0.86506668 253.81310834 -0.9205927 272.34670132 -0.94088495 C283.78173131 -0.95460156 295.21586094 -0.99791113 306.65061375 -1.07916467 C314.49350462 -1.13205373 322.33593053 -1.14799463 330.17898677 -1.13501377 C334.70338723 -1.12861263 339.22621538 -1.13837241 343.75033569 -1.19205475 C347.89730811 -1.24090142 352.04165907 -1.24306906 356.18875494 -1.20898895 C357.68428317 -1.20478064 359.17997828 -1.21732307 360.67518047 -1.24883182 C367.61808447 -1.38656673 373.2655616 -1.24005894 378.78227256 3.53509549 C380.1455619 4.84677348 381.4454673 6.22340004 382.74078435 7.60224402 C385.73468192 10.77973432 388.88425645 12.58038919 392.8125 14.375 C393.49207764 14.69750732 394.17165527 15.02001465 394.87182617 15.35229492 C401.39508764 18.35152179 407.98528557 20.45527033 415 22 C416.25296875 22.29777344 417.5059375 22.59554688 418.796875 22.90234375 C440.63107723 27.50688799 465.27485707 26.58998063 487.05932617 22.44116211 C494.8713215 21.01064963 502.4987169 20.55179578 510.4375 20.5 C512.09966553 20.47292969 512.09966553 20.47292969 513.79541016 20.4453125 C524.43815713 20.52324566 533.89200087 23.97946426 542 31 C546.67755887 36.88323036 548.72659134 42.41702858 548 50 C543.71596528 69.36248764 525.8123215 82.84301523 510 93 C505.38703757 95.77203394 500.71655217 98.4089092 496 101 C495.16855469 101.47566406 494.33710937 101.95132813 493.48046875 102.44140625 C469.66381398 115.38435833 440.64757167 115.80739285 415 109 C414.2692627 108.80696289 413.53852539 108.61392578 412.78564453 108.41503906 C395.22569528 103.57283436 377.93769442 95.36568178 363 85 C360.85700951 83.64133897 358.71133734 82.28689473 356.5625 80.9375 C349.36753514 76.35997087 342.49355128 71.3704147 335.60546875 66.34765625 C329.06060707 61.57602612 322.43187186 56.9238719 315.80371094 52.26904297 C314.23328984 51.16413652 312.66705458 50.05328539 311.1015625 48.94140625 C305.19230804 44.75646106 299.13889135 40.83892104 293 37 C292.14390137 36.44070801 292.14390137 36.44070801 291.27050781 35.87011719 C277.39398534 26.92276148 261.94199559 20.20048431 246 16 C244.77796875 15.61070313 243.5559375 15.22140625 242.296875 14.8203125 C220.89193324 8.37523056 196.71116997 11.52039141 175 15 C173.80310547 15.18755859 172.60621094 15.37511719 171.37304688 15.56835938 C156.58120918 17.90152826 141.86606174 20.51915087 127.20214844 23.55029297 C123.55745227 24.2945868 119.90503268 24.99600733 116.25 25.6875 C115.03828125 25.91824219 113.8265625 26.14898438 112.578125 26.38671875 C103.99251146 27.85827041 95.65137006 28.18626947 86.95654297 28.18530273 C84.76900522 28.18748107 82.58197966 28.20566297 80.39453125 28.22460938 C68.99573263 28.27202931 58.26475603 27.15319714 47.4375 23.4375 C46.68138428 23.1806543 45.92526855 22.92380859 45.14624023 22.65917969 C29.39389173 17.11611642 14.67739719 8.87287038 0 1 C0 0.67 0 0.34 0 0 Z " fill="#123754" transform="translate(327,0)"/>
<path d="M0 0 C4.60699461 1.49599825 8.37460878 4.2490618 12.3125 7 C27.73583097 17.55843281 45.65503598 15.64461054 63.25 13.5 C100.24641626 9.08779655 100.24641626 9.08779655 113.6875 19.25 C116.2991548 21.7541793 117.55118796 23.48038475 117.8125 27.125 C116.29875767 34.34438651 110.32646593 37.43773212 104.515625 41.37109375 C89.56597491 51.05122432 69.64196296 55.10576406 52 54 C50.58074219 53.91492188 50.58074219 53.91492188 49.1328125 53.828125 C33.33182505 52.13946985 18.30593591 44.32276674 5 36 C3.76056641 35.26523438 3.76056641 35.26523438 2.49609375 34.515625 C-5.62446467 29.48794014 -13.17665168 22.87692229 -17 14 C-17.5900252 9.95411289 -17.19788227 8.35482338 -15.1875 4.75 C-10.78548135 -0.7839663 -6.63054274 -0.7917066 0 0 Z " fill="#113753" transform="translate(718,33)"/>
<path d="M0 0 C10.95489549 8.56285575 19.04732856 19.91579951 21.33056641 33.82861328 C22.40507168 44.26666454 20.10674611 54.10449617 13.89306641 62.70361328 C6.23611577 70.65811381 -5.71876213 74.04722088 -16.31787109 75.23876953 C-17.68514565 75.39294734 -19.05233098 75.54791816 -20.41943359 75.70361328 C-21.10247559 75.77990967 -21.78551758 75.85620605 -22.48925781 75.93481445 C-29.18253224 76.75312683 -35.29407852 78.63777808 -41.66943359 80.82861328 C-42.32985191 88.04406002 -42.75820902 95.22361456 -42.91552734 102.46533203 C-42.93217438 103.20381378 -42.94882141 103.94229553 -42.9659729 104.70315552 C-43.03251812 107.75717199 -43.09513922 110.81116144 -43.14624023 113.86547852 C-43.18572973 116.12820278 -43.23720046 118.39039759 -43.29052734 120.65283203 C-43.2989415 121.34543625 -43.30735565 122.03804047 -43.31602478 122.75163269 C-43.44241654 127.60159623 -43.44241654 127.60159623 -45.66943359 129.82861328 C-47.64208984 129.64501953 -47.64208984 129.64501953 -49.66943359 128.82861328 C-56.95633993 119.67326942 -60.69319774 106.43259827 -60.14599609 94.79736328 C-58.81209801 86.48783422 -54.90664199 81.70649651 -48.47412109 76.63330078 C-45.44748475 73.60666444 -44.56157659 69.92689516 -43.66943359 65.82861328 C-43.00943359 65.82861328 -42.34943359 65.82861328 -41.66943359 65.82861328 C-41.66943359 68.13861328 -41.66943359 70.44861328 -41.66943359 72.82861328 C-41.07300049 72.63380371 -40.47656738 72.43899414 -39.86206055 72.23828125 C-33.57021877 70.25716588 -27.36142187 68.99497365 -20.85693359 67.95361328 C-10.28082408 66.13980383 0.08147402 64.18322577 8.33056641 56.82861328 C13.00374192 49.15125351 13.40711781 39.94123563 11.86962891 31.21142578 C9.17311889 21.02813501 3.01495146 12.76562343 -5.66943359 6.82861328 C-17.84579927 0.61796699 -31.25740612 1.70084515 -44.02099609 5.50048828 C-57.72409916 10.48876991 -67.29820216 17.69786863 -73.64208984 30.84423828 C-76.54967462 38.14700936 -77.11820945 46.87305689 -74.90771484 54.43408203 C-73.14838255 58.25176356 -71.55499705 60.32590918 -67.66943359 61.82861328 C-61.0165866 62.92258047 -55.34283021 61.31916049 -49.66943359 57.82861328 C-47.50933591 56.04002176 -45.47856936 54.19999404 -43.49365234 52.21923828 C-41.66943359 50.82861328 -41.66943359 50.82861328 -37.66943359 50.82861328 C-37.97049325 55.08976532 -39.50473983 57.07612464 -42.61694336 59.92700195 C-43.14989014 60.38953369 -43.68283691 60.85206543 -44.23193359 61.32861328 C-44.77841553 61.80983643 -45.32489746 62.29105957 -45.88793945 62.78686523 C-47.4656199 64.15480835 -49.06127291 65.49672365 -50.66943359 66.82861328 C-51.39130859 67.43060547 -52.11318359 68.03259766 -52.85693359 68.65283203 C-57.35545804 71.92363418 -61.46608217 72.59569814 -66.99365234 72.30517578 C-73.18363581 71.20272617 -77.14130441 67.78451448 -81.04443359 63.01611328 C-86.46937672 55.11456569 -86.63133008 46.07689888 -85.20458984 36.80908203 C-82.18469876 22.88899237 -73.57926675 11.84685448 -62.16943359 3.51611328 C-45.48482104 -7.07797232 -17.0790968 -11.98384125 0 0 Z " fill="#F3F6F6" transform="translate(1087.66943359375,19.17138671875)"/>
<path d="M0 0 C5.30145171 -0.30689118 8.48907964 0.34076392 13.1328125 2.88671875 C14.83824219 3.8003418 14.83824219 3.8003418 16.578125 4.73242188 C17.76100822 5.38304025 18.94329896 6.03473693 20.125 6.6875 C57.34467742 26.99104313 95.40036283 27.36749842 136.0390625 17.67602539 C139.92169271 16.78956406 143.80890209 16.17958563 147.75 15.625 C156.71684434 14.29098134 165.58229012 12.54320001 174.45996094 10.71337891 C175.97251465 10.40279541 175.97251465 10.40279541 177.515625 10.0859375 C178.40540039 9.9007959 179.29517578 9.7156543 180.21191406 9.52490234 C186.52566097 8.33623721 192.61313517 7.82056221 199.01953125 7.76171875 C199.87697433 7.753647 200.73441742 7.74557526 201.61784363 7.73725891 C203.43067446 7.72348309 205.24353052 7.71273213 207.05639648 7.70483398 C208.87418455 7.69340136 210.69194142 7.67309076 212.50952148 7.64331055 C237.7656767 7.2308617 259.88915709 14.07341457 282 26 C282.67981934 26.36528809 283.35963867 26.73057617 284.06005859 27.10693359 C299.58804355 35.50803714 313.75548481 45.61259692 328 56 C328.56702637 56.4134668 329.13405273 56.82693359 329.71826172 57.25292969 C330.22244629 57.62063477 330.72663086 57.98833984 331.24609375 58.3671875 C336.2498902 62.01534548 341.27038352 65.63146876 346.359375 69.16015625 C348.23394331 70.4662534 350.09746989 71.7882621 351.953125 73.12109375 C365.16047131 82.50611693 379.3868389 90.04383709 394 97 C394.60585938 97.29036133 395.21171875 97.58072266 395.8359375 97.87988281 C404.41778811 101.94127172 412.68382811 104.31163228 422 106 C423.26714844 106.2784375 424.53429687 106.556875 425.83984375 106.84375 C454.24316598 113.01227252 481.44075947 105.85571968 506 91 C509.80305297 88.48942714 513.41531015 85.81072272 517 83 C518.12921875 82.17435547 518.12921875 82.17435547 519.28125 81.33203125 C528.86158495 74.23111397 539.14499483 65.64336926 543 54 C543.912014 47.32993154 544.17052298 40.60863435 540 35 C531.72081296 26.95736116 520.82594748 24.63232353 509.63208008 24.62329102 C499.90058286 24.81104684 490.29623649 26.52925281 480.69921875 28.02734375 C448.77916932 32.86628133 409.51057481 32.49111315 382.15625 12.66357422 C371.4685527 4.4056581 371.4685527 4.4056581 370 0 C374.45079817 0.4910688 376.24022242 1.8810829 379.3125 5.0625 C389.17321471 14.26388015 401.97726512 19.13222753 415 22 C416.25296875 22.29777344 417.5059375 22.59554688 418.796875 22.90234375 C440.63107723 27.50688799 465.27485707 26.58998063 487.05932617 22.44116211 C494.8713215 21.01064963 502.4987169 20.55179578 510.4375 20.5 C512.09966553 20.47292969 512.09966553 20.47292969 513.79541016 20.4453125 C524.43815713 20.52324566 533.89200087 23.97946426 542 31 C546.67755887 36.88323036 548.72659134 42.41702858 548 50 C543.71596528 69.36248764 525.8123215 82.84301523 510 93 C505.38703757 95.77203394 500.71655217 98.4089092 496 101 C495.16855469 101.47566406 494.33710937 101.95132813 493.48046875 102.44140625 C469.66381398 115.38435833 440.64757167 115.80739285 415 109 C414.2692627 108.80696289 413.53852539 108.61392578 412.78564453 108.41503906 C395.22569528 103.57283436 377.93769442 95.36568178 363 85 C360.85700951 83.64133897 358.71133734 82.28689473 356.5625 80.9375 C349.36753514 76.35997087 342.49355128 71.3704147 335.60546875 66.34765625 C329.06060707 61.57602612 322.43187186 56.9238719 315.80371094 52.26904297 C314.23328984 51.16413652 312.66705458 50.05328539 311.1015625 48.94140625 C305.19230804 44.75646106 299.13889135 40.83892104 293 37 C292.14390137 36.44070801 292.14390137 36.44070801 291.27050781 35.87011719 C277.39398534 26.92276148 261.94199559 20.20048431 246 16 C244.77796875 15.61070313 243.5559375 15.22140625 242.296875 14.8203125 C220.89193324 8.37523056 196.71116997 11.52039141 175 15 C173.80310547 15.18755859 172.60621094 15.37511719 171.37304688 15.56835938 C156.58120918 17.90152826 141.86606174 20.51915087 127.20214844 23.55029297 C123.55745227 24.2945868 119.90503268 24.99600733 116.25 25.6875 C115.03828125 25.91824219 113.8265625 26.14898438 112.578125 26.38671875 C103.99251146 27.85827041 95.65137006 28.18626947 86.95654297 28.18530273 C84.76900522 28.18748107 82.58197966 28.20566297 80.39453125 28.22460938 C68.99573263 28.27202931 58.26475603 27.15319714 47.4375 23.4375 C46.68138428 23.1806543 45.92526855 22.92380859 45.14624023 22.65917969 C29.39389173 17.11611642 14.67739719 8.87287038 0 1 C0 0.67 0 0.34 0 0 Z " fill="#E7ECEE" transform="translate(327,0)"/>
<path d="M0 0 C5.54973135 -0.27328223 11.0955028 -0.47210322 16.65039062 -0.60424805 C18.53650143 -0.65935118 20.42214681 -0.7342651 22.30664062 -0.82983398 C37.97234974 -1.60401147 37.97234974 -1.60401147 42.99609375 2.37011719 C45.05348057 5.17623656 46.581332 7.83034046 48 11 C48.36802734 11.64573975 48.73605469 12.29147949 49.11523438 12.95678711 C51.44227929 17.34439691 51.84168574 22.1670948 51 27 C49.20606332 29.87029869 48.01736724 31.49131638 45 33 C38.49732708 33.82295238 33.38662664 32.76816772 28 29 C25.9375 26.75 25.9375 26.75 24 24 C22.30739123 22.01246698 20.57629496 20.06215873 18.84375 18.109375 C17.65177359 16.74567317 16.48305243 15.36113083 15.34375 13.953125 C11.39319678 9.14537627 7.14865801 5.75448713 1.94140625 2.34765625 C1.30074219 1.90292969 0.66007813 1.45820312 0 1 C0 0.67 0 0.34 0 0 Z " fill="#133854" transform="translate(625,0)"/>
<path d="M0 0 C-0.33 1.65 -0.66 3.3 -1 5 C0.98 4.34 2.96 3.68 5 3 C5 3.66 5 4.32 5 5 C6.98 5 8.96 5 11 5 C11.33 5.66 11.66 6.32 12 7 C10.35 7 8.7 7 7 7 C7 7.66 7 8.32 7 9 C8.32 9 9.64 9 11 9 C11.33 9.66 11.66 10.32 12 11 C12.33 9.35 12.66 7.7 13 6 C14.98 6 16.96 6 19 6 C20 9 20 9 19 12 C19.33 12.99 19.66 13.98 20 15 C20.66 15.33 21.32 15.66 22 16 C22.625 18.0625 22.625 18.0625 23 20 C23.66 19.01 24.32 18.02 25 17 C25.66 17.33 26.32 17.66 27 18 C26.505 19.485 26.505 19.485 26 21 C26.87914688 23.6569191 26.87914688 23.6569191 28 26 C27.01 26 26.02 26 25 26 C25.66 28.31 26.32 30.62 27 33 C27.66 33 28.32 33 29 33 C29 31.35 29 29.7 29 28 C29.33 28 29.66 28 30 28 C30 30.97 30 33.94 30 37 C29.34 37 28.68 37 28 37 C26.375 34.5 26.375 34.5 25 32 C24.67 33.65 24.34 35.3 24 37 C23.34 37 22.68 37 22 37 C21.94562393 35.41705218 21.90703729 33.83355744 21.875 32.25 C21.85179687 31.36828125 21.82859375 30.4865625 21.8046875 29.578125 C22.00860498 26.8864142 22.63448279 25.30095026 24 23 C23.34 23 22.68 23 22 23 C22 23.99 22 24.98 22 26 C21.34 26 20.68 26 20 26 C20 23.36 20 20.72 20 18 C18.35 18 16.7 18 15 18 C15 18.66 15 19.32 15 20 C16.32 20 17.64 20 19 20 C19 20.66 19 21.32 19 22 C17.68 22 16.36 22 15 22 C15 22.66 15 23.32 15 24 C16.32 24 17.64 24 19 24 C19 24.66 19 25.32 19 26 C17.02 26 15.04 26 13 26 C12.505 23.525 12.505 23.525 12 21 C10.35 21.33 8.7 21.66 7 22 C5.67713754 26.96073422 5.91106803 31.91111512 6 37 C5.34 37 4.68 37 4 37 C4 35.68 4 34.36 4 33 C0.9254644 33.7763932 0.9254644 33.7763932 -1 36 C-1 33.69 -1 31.38 -1 29 C-2.32 29 -3.64 29 -5 29 C-5.33 28.01 -5.66 27.02 -6 26 C-6.66 26 -7.32 26 -8 26 C-8 26.99 -8 27.98 -8 29 C-8.66 29 -9.32 29 -10 29 C-10.33 30.32 -10.66 31.64 -11 33 C-11.06061857 26.99876132 -11.05318501 21.0012476 -11 15 C-10.99613281 13.68515625 -10.99226563 12.3703125 -10.98828125 11.015625 C-10.88568578 7.88823206 -10.74642608 5.03867648 -10 2 C-6.64503375 -0.83308261 -4.13928869 -1.75123752 0 0 Z " fill="#143751" transform="translate(1055,98)"/>
<path d="M0 0 C4.95803233 -0.10065499 9.91544002 -0.17228729 14.87426758 -0.21972656 C16.55275865 -0.23955063 18.23118353 -0.26661836 19.90942383 -0.30175781 C30.48566602 -0.51727608 39.9682747 0.22234506 50.18774414 3.03613281 C56.56003898 4.64726442 62.69121903 5.12571091 69.2734375 5.02734375 C70.59214844 5.01509766 71.91085937 5.00285156 73.26953125 4.99023438 C75.33683341 4.96526457 77.40400101 4.93703725 79.47119141 4.90405273 C81.48849609 4.87397552 83.50597907 4.8567055 85.5234375 4.83984375 C87.316604 4.81458618 87.316604 4.81458618 89.14599609 4.78881836 C92 5 92 5 94 7 C94 8.32 94 9.64 94 11 C65.23228309 19.98991153 28.93176906 14.06076301 2 2 C1.34 1.34 0.68 0.68 0 0 Z " fill="#133855" transform="translate(362,0)"/>
<path d="M0 0 C4.85631927 0.54319431 9.08835304 2.04195956 13.63427734 3.73046875 C31.47810031 10.32408417 47.87634879 13.34300766 66.875 13.375 C67.56511169 13.37717529 68.25522339 13.37935059 68.96624756 13.3815918 C78.79308322 13.37807897 88.30191845 12.51603398 98 11 C98 10.34 98 9.68 98 9 C97.01 8.505 97.01 8.505 96 8 C96 7.34 96 6.68 96 6 C94.77035522 6.02356567 94.77035522 6.02356567 93.51586914 6.04760742 C75.25429601 6.3511771 58.80354673 5.49979752 41 1 C41 0.67 41 0.34 41 0 C71.03 0 101.06 0 132 0 C124.28073684 5.78944737 114.49462025 8.24472402 105.375 11.1875 C104.23115845 11.56225464 104.23115845 11.56225464 103.06420898 11.94458008 C91.67462642 15.54122648 80.79071743 16.37294129 68.92358398 16.37060547 C66.46591294 16.37494978 64.01008615 16.41129589 61.55273438 16.44921875 C44.70216091 16.57316583 29.66329453 12.66374141 13.9375 6.875 C12.67932622 6.42756978 11.42086235 5.98095442 10.16210938 5.53515625 C1.13367302 2.26734604 1.13367302 2.26734604 0 0 Z " fill="#193C58" transform="translate(358,0)"/>
<path d="M0 0 C3.38283538 1.65950415 6.39981265 3.87057839 9.5 6 C17.26112631 11.26751412 24.30923697 13.52558614 33.625 14 C35.06359375 14.07927734 35.06359375 14.07927734 36.53125 14.16015625 C43.88342368 14.36146577 50.74949543 13.6122532 58 12.5 C74.99750788 9.96984226 93.77501577 7.76494845 109.125 16.9375 C115.12835963 21.89027169 115.12835963 21.89027169 116.11328125 26.07421875 C116.4079314 29.47713906 116.28031711 31.95666619 114.4375 34.890625 C112.62728021 36.8226865 110.73087989 38.39534197 108.625 40 C107.93019531 40.56332031 107.23539063 41.12664062 106.51953125 41.70703125 C100.25164744 46.23667649 93.4378988 48.75494046 86.1875 51.3125 C85.23488281 51.65015381 84.28226563 51.98780762 83.30078125 52.33569336 C64.56061771 58.66081857 46.01923662 59.31868642 27.625 52 C26.99062012 51.75894531 26.35624023 51.51789063 25.70263672 51.26953125 C8.89166951 44.82312435 -11.94120394 35.19166934 -21.125 18.89453125 C-22.89684574 14.79160097 -23.27810608 11.35487339 -21.6484375 7.10546875 C-16.93764507 -1.99057354 -9.1495261 -2.7109707 0 0 Z M-18.375 5 C-20.67682241 8.28831773 -20.90684559 11.04914703 -20.375 15 C-12.24839889 33.65962294 11.12164908 43.47363538 28.9375 50.64160156 C35.47287428 53.16353813 41.5779437 54.92881761 48.625 55 C49.41132812 55.04898438 50.19765625 55.09796875 51.0078125 55.1484375 C73.32511469 56.0356697 95.66295969 48.52167572 112.625 34 C114.28905898 30.67188204 114.48642319 27.55497779 113.625 24 C109.13584423 17.767848 101.99491216 14.39903417 94.625 13 C81.83490282 11.74612689 69.07808963 13.39480438 56.38842773 14.91870117 C37.38931569 17.15765377 22.46734469 16.66676982 6.0703125 6.15625 C-1.66527378 1.24747932 -11.16126645 -3.11545025 -18.375 5 Z " fill="#D5DDE0" transform="translate(721.375,32)"/>
<path d="M0 0 C4.45079817 0.4910688 6.24022242 1.8810829 9.3125 5.0625 C19.17321471 14.26388015 31.97726512 19.13222753 45 22 C46.25296875 22.29777344 47.5059375 22.59554688 48.796875 22.90234375 C71.90709272 27.77598277 97.96639865 26.45481682 120.953125 21.875 C125.7160817 20.94351267 130.15403485 20.8417644 135 21 C135 21.33 135 21.66 135 22 C138.3 22.33 141.6 22.66 145 23 C145 23.33 145 23.66 145 24 C143.71609375 24.10957031 142.4321875 24.21914063 141.109375 24.33203125 C131.04820629 25.22313867 121.07171194 26.30689404 111.10253906 27.9465332 C78.75738653 33.16182759 42.55935711 31.64941578 14 14 C1.69316727 5.0795018 1.69316727 5.0795018 0 0 Z " fill="#D7DFE3" transform="translate(697,0)"/>
<path d="M0 0 C1.65 0 3.3 0 5 0 C5 10.56 5 21.12 5 32 C2.66666667 32 0.33333333 32 -2 32 C-3.11375 32.061875 -4.2275 32.12375 -5.375 32.1875 C-9 32 -9 32 -11.1953125 31.01953125 C-13.99725374 27.88402557 -13.57996139 24.49140605 -13.5 20.5 C-13.51546875 19.72785156 -13.5309375 18.95570313 -13.546875 18.16015625 C-13.50811297 12.56873383 -13.50811297 12.56873383 -11.19921875 9.984375 C-8.05832286 8.5785033 -5.39188647 8.74400857 -2 9 C-1.67 9.33 -1.34 9.66 -1 10 C-0.67 6.7 -0.34 3.4 0 0 Z " fill="#EAC866" transform="translate(104,112)"/>
<path d="M0 0 C3.38939556 2.13679285 4.72582557 3.1774767 6 7 C6.52442906 12.38548303 6.56606775 16.64147274 3 21 C-0.7373856 23.4915904 -2.57331583 23.45793285 -7 23 C-9.75329021 21.20437595 -11.52627461 19.94745078 -13 17 C-13.51124099 11.79539913 -13.86132441 7.43554069 -11.125 2.875 C-7.44036356 -0.3761498 -4.88113514 -0.41365552 0 0 Z " fill="#DCC068" transform="translate(62,121)"/>
<path d="M0 0 C3.4375 2 3.4375 2 6 5 C6.50159903 7.85647449 6.2978711 10.07093421 6 13 C1.38 13 -3.24 13 -8 13 C-7.01 14.65 -6.02 16.3 -5 18 C-1.7949288 18.49308788 0.91324648 17.91459364 4 17 C4.33 18.32 4.66 19.64 5 21 C1.83305545 23.11129637 -1.25519913 23.47202483 -5.03125 23.39453125 C-8.38693026 22.72206358 -9.95936396 20.59717314 -12 18 C-13.73348019 14.53303962 -13.47699379 10.79051063 -13 7 C-9.57726112 0.61088743 -7.22745799 -0.7227458 0 0 Z " fill="#E0C167" transform="translate(230,121)"/>
<path d="M0 0 C6.6 0 13.2 0 20 0 C20 1.65 20 3.3 20 5 C15.05 5 10.1 5 5 5 C5 7.97 5 10.94 5 14 C9.29 14 13.58 14 18 14 C18 15.65 18 17.3 18 19 C13.71 19 9.42 19 5 19 C5 23.29 5 27.58 5 32 C3.35 32 1.7 32 0 32 C0 21.44 0 10.88 0 0 Z " fill="#E3C772" transform="translate(26,112)"/>
<path d="M0 0 C3 2.5625 3 2.5625 5 6 C5 8.31 5 10.62 5 13 C0.38 13 -4.24 13 -9 13 C-8.01 14.65 -7.02 16.3 -6 18 C-3.54230847 18.41679297 -3.54230847 18.41679297 -1 18 C0.32 18 1.64 18 3 18 C3 18.99 3 19.98 3 21 C-0.66781672 23.44521115 -3.73453233 23.72237759 -8 23 C-10.43119623 21.12984906 -11.64069173 19.71861655 -13 17 C-13.41676403 12.02287573 -13.65548795 7.48974534 -11.625 2.875 C-8.50642719 -0.72335324 -4.50030885 -0.89489889 0 0 Z " fill="#EECA65" transform="translate(127,121)"/>
<path d="M0 0 C4.85631927 0.54319431 9.08835304 2.04195956 13.63427734 3.73046875 C50.65405543 17.40994653 87.33305865 16.03460083 124 2 C124.71760498 1.62431885 125.43520996 1.2486377 126.17456055 0.86157227 C128.49943101 -0.23572182 129.631229 0.15401036 132 1 C124.03907531 5.17146342 115.95213746 8.1325767 107.375 10.75 C106.42230225 11.04334229 105.46960449 11.33668457 104.48803711 11.63891602 C92.51797285 15.2028686 81.35567676 16.37305249 68.92358398 16.37060547 C66.46591294 16.37494978 64.01008615 16.41129589 61.55273438 16.44921875 C44.70216091 16.57316583 29.66329453 12.66374141 13.9375 6.875 C12.67932622 6.42756978 11.42086235 5.98095442 10.16210938 5.53515625 C1.13367302 2.26734604 1.13367302 2.26734604 0 0 Z " fill="#DCE2E4" transform="translate(358,0)"/>
<path d="M0 0 C1.32 0 2.64 0 4 0 C4 0.66 4 1.32 4 2 C4.99 1.34 5.98 0.68 7 0 C10.57176532 -0.46588243 12.47628595 -0.27676568 15.67578125 1.4140625 C19.15417698 5.28414313 18.55313804 8.73732456 18.3125 13.75 C18.28994141 14.63816406 18.26738281 15.52632812 18.24414062 16.44140625 C18.18532552 18.62932812 18.10321268 20.81379671 18 23 C16.35 23 14.7 23 13 23 C12.67 17.39 12.34 11.78 12 6 C10.02 6 8.04 6 6 6 C4.5192152 8.9615696 4.64685963 11.83506295 4.4375 15.125 C4.35371094 16.40632813 4.26992188 17.68765625 4.18359375 19.0078125 C4.09271484 20.48894531 4.09271484 20.48894531 4 22 C2.68 22 1.36 22 0 22 C0 14.74 0 7.48 0 0 Z " fill="#B8A865" transform="translate(253,121)"/>
<path d="M0 0 C1.051875 0.12375 2.10375 0.2475 3.1875 0.375 C3 2.25 3 2.25 2.1875 4.375 C0.53545544 5.07711894 -1.13173769 5.74471413 -2.8125 6.375 C-3.1425 7.365 -3.4725 8.355 -3.8125 9.375 C-0.8425 9.375 2.1275 9.375 5.1875 9.375 C5.5175 8.055 5.8475 6.735 6.1875 5.375 C6.8475 5.375 7.5075 5.375 8.1875 5.375 C8.5175 8.015 8.8475 10.655 9.1875 13.375 C4.8975 13.375 0.6075 13.375 -3.8125 13.375 C-3.1525 15.025 -2.4925 16.675 -1.8125 18.375 C1.1575 18.045 4.1275 17.715 7.1875 17.375 C7.8475 18.365 8.5075 19.355 9.1875 20.375 C5.09643759 23.35031812 2.21688055 24.00367257 -2.8125 23.375 C-6.20189556 21.23820715 -7.53832557 20.1975233 -8.8125 16.375 C-9.40203356 11.48187143 -9.75869123 6.88325124 -6.75 2.75 C-3.8125 0.375 -3.8125 0.375 0 0 Z " fill="#DEBF63" transform="translate(185.8125,120.625)"/>
<path d="M0 0 C0.99 0 1.98 0 3 0 C3.33 1.65 3.66 3.3 4 5 C4.78375 4.938125 5.5675 4.87625 6.375 4.8125 C7.674375 4.9053125 7.674375 4.9053125 9 5 C11.13586678 8.20380017 11.23132175 9.01939967 11.125 12.6875 C11.10695313 13.49574219 11.08890625 14.30398437 11.0703125 15.13671875 C11.04710937 15.75160156 11.02390625 16.36648437 11 17 C10.01 17 9.02 17 8 17 C7.67 14.03 7.34 11.06 7 8 C6.01 8 5.02 8 4 8 C3.67 10.97 3.34 13.94 3 17 C2.01 17 1.02 17 0 17 C-0.33 16.34 -0.66 15.68 -1 15 C-1.66 15.66 -2.32 16.32 -3 17 C-5.80984248 17.36023622 -7.38241919 17.38332602 -9.8125 15.875 C-11.55198782 13.12844028 -11.39769128 11.18153026 -11 8 C-9.875 6.125 -9.875 6.125 -8 5 C-4.8125 4.8125 -4.8125 4.8125 -2 5 C-1.67 6.32 -1.34 7.64 -1 9 C-0.67 6.03 -0.34 3.06 0 0 Z " fill="#374E55" transform="translate(481,127)"/>
<path d="M0 0 C1.65 0 3.3 0 5 0 C6.65 4.29 8.3 8.58 10 13 C10.639375 11.040625 11.27875 9.08125 11.9375 7.0625 C13.875 1.125 13.875 1.125 15 0 C16.66617115 -0.04063832 18.33388095 -0.042721 20 0 C17.81659819 7.86379677 15.00714974 15.41675284 12 23 C10.68 23 9.36 23 8 23 C6.6582322 19.73256344 5.32805641 16.46053092 4 13.1875 C3.6184375 12.25873047 3.236875 11.32996094 2.84375 10.37304688 C2.4828125 9.48037109 2.121875 8.58769531 1.75 7.66796875 C1.41484375 6.84578857 1.0796875 6.0236084 0.734375 5.17651367 C0 3 0 3 0 0 Z " fill="#E5C466" transform="translate(155,121)"/>
<path d="M0 0 C4.89220436 0.41216374 7.49612109 2.83976833 10.875 6.125 C11.66608154 6.87487183 11.66608154 6.87487183 12.47314453 7.63989258 C13.9910052 9.08430837 15.49581182 10.54137741 17 12 C17.70125 12.66128906 18.4025 13.32257812 19.125 14.00390625 C22.13633685 16.90097362 24.61768833 19.81373369 27 23.25 C29.81169062 27.0983617 32.32544154 28.68784324 37 30 C41.45675283 30.37769092 44.12179254 30.12076269 48 28 C49.5530694 18.60488881 46.30666534 13.32331606 41.06640625 5.96875 C39 3 39 3 38 0 C43.54430133 1.84810044 46.24941156 8.0294893 49.12109375 12.90234375 C51.3428534 17.42027606 51.85695819 22.07940136 51 27 C49.20606332 29.87029869 48.01736724 31.49131638 45 33 C38.49732708 33.82295238 33.38662664 32.76816772 28 29 C25.9375 26.75 25.9375 26.75 24 24 C22.30739123 22.01246698 20.57629496 20.06215873 18.84375 18.109375 C17.65177359 16.74567317 16.48305243 15.36113083 15.34375 13.953125 C11.39319678 9.14537627 7.14865801 5.75448713 1.94140625 2.34765625 C1.30074219 1.90292969 0.66007813 1.45820312 0 1 C0 0.67 0 0.34 0 0 Z " fill="#D9E1E4" transform="translate(625,0)"/>
<path d="M0 0 C8 0 8 0 9.98046875 1.12109375 C11.44798681 3.82560021 11.36081606 6.00372194 11.3125 9.0625 C11.30863281 10.12597656 11.30476563 11.18945312 11.30078125 12.28515625 C11 15 11 15 9 17 C5.98173347 17.27240673 3.03629378 17.08675125 0 17 C0 11.39 0 5.78 0 0 Z " fill="#C1AB5F" transform="translate(386,127)"/>
<path d="M0 0 C3.96 0.33 7.92 0.66 12 1 C12 1.99 12 2.98 12 4 C10.68 4 9.36 4 8 4 C8 7.3 8 10.6 8 14 C6.68 14 5.36 14 4 14 C3.67 12.35 3.34 10.7 3 9 C0.36 9 -2.28 9 -5 9 C-4.67 9.66 -4.34 10.32 -4 11 C-2.35 11 -0.7 11 1 11 C1.33 11.66 1.66 12.32 2 13 C-4.40096618 14.32850242 -4.40096618 14.32850242 -6.9375 12.9375 C-8.47555213 10.13281671 -8.39310741 8.14485925 -8 5 C-6.8125 3.125 -6.8125 3.125 -5 2 C-2.3125 1.8125 -2.3125 1.8125 0 2 C0 1.34 0 0.68 0 0 Z " fill="#CCB062" transform="translate(307,130)"/>
<path d="M0 0 C17.49 0 34.98 0 53 0 C45.90527721 4.7298152 39.49815942 4.34605512 31.1875 4.3125 C29.24000854 4.31056641 29.24000854 4.31056641 27.25317383 4.30859375 C17.85001232 4.21463847 9.09737764 3.40686527 0 1 C0 0.67 0 0.34 0 0 Z " fill="#163A56" transform="translate(407,0)"/>
<path d="M0 0 C4.66666667 0 9.33333333 0 14 0 C14 1.32 14 2.64 14 4 C11.36 4.99 8.72 5.98 6 7 C5.67 12.28 5.34 17.56 5 23 C3.35 23 1.7 23 0 23 C0 15.41 0 7.82 0 0 Z " fill="#E0C36C" transform="translate(73,121)"/>
<path d="M0 0 C4.45079817 0.4910688 6.24022242 1.8810829 9.3125 5.0625 C18.61515115 13.74313138 30.14485476 18.28037793 42.40234375 21.11328125 C43.25957031 21.40589844 44.11679687 21.69851562 45 22 C45.495 23.485 45.495 23.485 46 25 C42.49963924 26.5090841 40.02141571 25.55451179 36.56958008 24.26098633 C35.88661865 23.98923584 35.20365723 23.71748535 34.5 23.4375 C33.78803467 23.15865967 33.07606934 22.87981934 32.3425293 22.5925293 C30.22002207 21.74729149 28.10871581 20.87901443 26 20 C24.92363281 19.55398437 23.84726562 19.10796875 22.73828125 18.6484375 C14.42411894 14.85211772 7.47785073 9.39750529 1 3 C0.67 2.01 0.34 1.02 0 0 Z " fill="#E9EFF0" transform="translate(697,0)"/>
<path d="M0 0 C2 3 2 3 2 6 C-0.9455778 7.90485707 -3.915975 9.62142131 -7.0234375 11.24414062 C-8.97032253 12.37452591 -10.48978378 13.32516572 -12 15 C-12.6085759 17.89956529 -12.35426701 20.00454587 -12 23 C-15.04860014 21.98379995 -15.86666922 21.22608429 -18 19 C-18.66 18.67 -19.32 18.34 -20 18 C-21.30635274 15.69467163 -22.15857074 13.52428777 -23 11 C-21.845 11.33 -20.69 11.66 -19.5 12 C-16.44325703 12.40576234 -15.38198151 12.28142331 -12.86328125 10.42578125 C-10.8381279 8.33890894 -8.91607974 6.18687473 -7 4 C-2.4 0 -2.4 0 0 0 Z " fill="#E7C566" transform="translate(1071,49)"/>
<path d="M0 0 C2.33333333 0 4.66666667 0 7 0 C7.99 -0.020625 8.98 -0.04125 10 -0.0625 C13 0 13 0 15 1 C14.4375 2.9375 14.4375 2.9375 13 5 C10.69 5.33 8.38 5.66 6 6 C5.67 11.61 5.34 17.22 5 23 C3.35 23 1.7 23 0 23 C0 15.41 0 7.82 0 0 Z " fill="#F2CB64" transform="translate(201,121)"/>
<path d="M0 0 C1.32 0.33 2.64 0.66 4 1 C5.75 4.5625 5.75 4.5625 7 8 C9.01136276 5.44008376 10.62845496 2.95409701 12 0 C12.99 0 13.98 0 15 0 C15 5.61 15 11.22 15 17 C14.01 17 13.02 17 12 17 C11.67 14.69 11.34 12.38 11 10 C10.34 11.32 9.68 12.64 9 14 C8.01 14 7.02 14 6 14 C5.34 12.35 4.68 10.7 4 9 C3.67 11.64 3.34 14.28 3 17 C2.01 17 1.02 17 0 17 C0 11.39 0 5.78 0 0 Z " fill="#CEB666" transform="translate(327,127)"/>
<path d="M0 0 C1.98 0 3.96 0 6 0 C6.33 0.66 6.66 1.32 7 2 C7.33 1.34 7.66 0.68 8 0 C9.98 0 11.96 0 14 0 C14.33 1.32 14.66 2.64 15 4 C13.35 4.33 11.7 4.66 10 5 C8.67713754 9.96073422 8.91106803 14.91111512 9 20 C8.34 20 7.68 20 7 20 C7 18.68 7 17.36 7 16 C3.9254644 16.7763932 3.9254644 16.7763932 2 19 C2 16.69 2 14.38 2 12 C1.01 12 0.02 12 -1 12 C-1 11.34 -1 10.68 -1 10 C1.31 10 3.62 10 6 10 C4.02 9.34 2.04 8.68 0 8 C0 7.67 0 7.34 0 7 C1.65 7 3.3 7 5 7 C5 6.34 5 5.68 5 5 C3.35 4.67 1.7 4.34 0 4 C0 2.68 0 1.36 0 0 Z " fill="#536257" transform="translate(1052,115)"/>
<path d="M0 0 C1.17175781 0.01353516 1.17175781 0.01353516 2.3671875 0.02734375 C2.94726562 0.03894531 3.52734375 0.05054687 4.125 0.0625 C4.125 0.3925 4.125 0.7225 4.125 1.0625 C7.425 1.3925 10.725 1.7225 14.125 2.0625 C14.125 2.3925 14.125 2.7225 14.125 3.0625 C12.84109375 3.17207031 11.5571875 3.28164063 10.234375 3.39453125 C0.05089771 4.29709809 -10.0388051 5.40224335 -20.12402344 7.09692383 C-25.11371898 7.90887198 -29.81796614 8.18935832 -34.875 8.0625 C-34.875 7.0725 -34.875 6.0825 -34.875 5.0625 C-28.01056071 3.57573204 -21.12988262 2.47974072 -14.171875 1.52734375 C-12.0282159 1.22509798 -9.88919292 0.8870807 -7.7578125 0.5078125 C-5.10990992 0.0987869 -2.67343703 -0.04050662 0 0 Z " fill="#DDE5E9" transform="translate(827.875,20.9375)"/>
<path d="M0 0 C3.625 0.375 3.625 0.375 7 1 C7 1.99 7 2.98 7 4 C4.69 3.67 2.38 3.34 0 3 C0.33 3.99 0.66 4.98 1 6 C3.97503122 7.15835673 3.97503122 7.15835673 7 8 C8 9 8 9 8.1875 11.9375 C8 15 8 15 6 17 C-2.20588235 17.52941176 -2.20588235 17.52941176 -6 15 C-6 14.01 -6 13.02 -6 12 C-8.31 12 -10.62 12 -13 12 C-13 11.01 -13 10.02 -13 9 C-10.36 9 -7.72 9 -5 9 C-4.67 9.66 -4.34 10.32 -4 11 C-3.01 11.33 -2.02 11.66 -1 12 C-1 12.66 -1 13.32 -1 14 C1.31 14 3.62 14 6 14 C5.67 13.01 5.34 12.02 5 11 C3.01751285 10.28293018 1.01584651 9.61709587 -1 9 C-1.66 8.34 -2.32 7.68 -3 7 C-2.67028521 3.70285207 -2.3773161 2.3773161 0 0 Z " fill="#C8B165" transform="translate(460,127)"/>
<path d="M0 0 C2.475 0.495 2.475 0.495 5 1 C5.66 0.67 6.32 0.34 7 0 C8.99960012 -0.039992 11.00047242 -0.04346799 13 0 C13.5625 1.9375 13.5625 1.9375 14 4 C12.06729418 5.93270582 8.61358612 5.62663055 6 6 C3.94077598 8.05922402 4.58572421 12.21708124 4.4375 15.0625 C4.39431641 15.82111328 4.35113281 16.57972656 4.30664062 17.36132812 C4.20026367 19.24065438 4.09960066 21.12030244 4 23 C2.68 23 1.36 23 0 23 C0 15.41 0 7.82 0 0 Z " fill="#EBCA6A" transform="translate(138,121)"/>
<path d="M0 0 C2.97 0 5.94 0 9 0 C9.33 1.32 9.66 2.64 10 4 C10.66 3.01 11.32 2.02 12 1 C12.66 1.33 13.32 1.66 14 2 C13.67 2.99 13.34 3.98 13 5 C13.87914688 7.6569191 13.87914688 7.6569191 15 10 C14.01 10 13.02 10 12 10 C12.66 12.31 13.32 14.62 14 17 C14.66 17 15.32 17 16 17 C16 15.35 16 13.7 16 12 C16.33 12 16.66 12 17 12 C17 14.97 17 17.94 17 21 C16.34 21 15.68 21 15 21 C13.375 18.5 13.375 18.5 12 16 C11.67 17.65 11.34 19.3 11 21 C10.34 21 9.68 21 9 21 C8.94562393 19.41705218 8.90703729 17.83355744 8.875 16.25 C8.85179687 15.36828125 8.82859375 14.4865625 8.8046875 13.578125 C9.00860498 10.8864142 9.63448279 9.30095026 11 7 C10.34 7 9.68 7 9 7 C9 7.99 9 8.98 9 10 C8.34 10 7.68 10 7 10 C7 7.36 7 4.72 7 2 C5.35 2 3.7 2 2 2 C2 2.66 2 3.32 2 4 C3.32 4 4.64 4 6 4 C6 4.66 6 5.32 6 6 C4.68 6 3.36 6 2 6 C2 6.66 2 7.32 2 8 C3.32 8 4.64 8 6 8 C6 8.66 6 9.32 6 10 C4.02 10 2.04 10 0 10 C0 6.7 0 3.4 0 0 Z " fill="#82815C" transform="translate(1068,114)"/>
<path d="M0 0 C2 2 2 2 2 5 C2.66 5 3.32 5 4 5 C4.33 3.35 4.66 1.7 5 0 C5.66 0 6.32 0 7 0 C7 2.31 7 4.62 7 7 C7.33 4.69 7.66 2.38 8 0 C9.98 0 11.96 0 14 0 C14 0.66 14 1.32 14 2 C12.68 2 11.36 2 10 2 C10 2.66 10 3.32 10 4 C10.99 4 11.98 4 13 4 C13 4.66 13 5.32 13 6 C12.01 6 11.02 6 10 6 C10 6.66 10 7.32 10 8 C11.32 8 12.64 8 14 8 C14 8.66 14 9.32 14 10 C11.69 10 9.38 10 7 10 C6.67 12.64 6.34 15.28 6 18 C5.34 18 4.68 18 4 18 C4 18.66 4 19.32 4 20 C3.01 19.67 2.02 19.34 1 19 C0.26953125 17.15234375 0.26953125 17.15234375 -0.1875 14.9375 C-0.34605469 14.20402344 -0.50460937 13.47054687 -0.66796875 12.71484375 C-0.77753906 12.14894531 -0.88710937 11.58304688 -1 11 C-0.01 11 0.98 11 2 11 C1.34 7.37 0.68 3.74 0 0 Z " fill="#2B434B" transform="translate(1062,125)"/>
<path d="M0 0 C2.62025212 1.74518679 4.07161855 3.68391736 5.8828125 6.25390625 C6.50800781 7.11757813 7.13320312 7.98125 7.77734375 8.87109375 C9.0703125 11.37890625 9.0703125 11.37890625 8.76953125 13.69921875 C8.53878906 14.25351563 8.30804687 14.8078125 8.0703125 15.37890625 C1.69830822 14.3985979 -3.19792732 9.43470069 -7.9296875 5.37890625 C-6.9296875 2.37890625 -6.9296875 2.37890625 -4.6171875 0.56640625 C-1.9296875 -0.62109375 -1.9296875 -0.62109375 0 0 Z " fill="#E8C564" transform="translate(1075.9296875,55.62109375)"/>
<path d="M0 0 C2.13671875 -0.34375 2.13671875 -0.34375 5 0 C7.1491769 1.78663019 8.93903847 3.46395503 10.8125 5.5 C11.31458984 6.02464844 11.81667969 6.54929687 12.33398438 7.08984375 C13.56762133 8.38222532 14.78541625 9.68969599 16 11 C14.35 12.98 12.7 14.96 11 17 C7.00159112 15.49617365 5.48389163 13.18586145 3.25 9.625 C2.63640625 8.66851562 2.0228125 7.71203125 1.390625 6.7265625 C0 4 0 4 0 0 Z " fill="#E7C667" transform="translate(1053,36)"/>
<path d="M0 0 C0.33 0 0.66 0 1 0 C1 2.97 1 5.94 1 9 C5.29 9 9.58 9 14 9 C14 10.65 14 12.3 14 14 C9.71 14 5.42 14 1 14 C1 18.29 1 22.58 1 27 C-0.65 27 -2.3 27 -4 27 C-2.68 26.67 -1.36 26.34 0 26 C0 22.37 0 18.74 0 15 C-0.99 15 -1.98 15 -3 15 C-3.56229448 4.27475338 -3.56229448 4.27475338 0 0 Z " fill="#BFAB66" transform="translate(30,117)"/>
<path d="M0 0 C0.33 0 0.66 0 1 0 C1 2.64 1 5.28 1 8 C2.98 8 4.96 8 7 8 C7 7.34 7 6.68 7 6 C5.68 6 4.36 6 3 6 C3 5.34 3 4.68 3 4 C4.32 4 5.64 4 7 4 C7 3.34 7 2.68 7 2 C5.68 2 4.36 2 3 2 C3 1.34 3 0.68 3 0 C4.65 0 6.3 0 8 0 C8 2.64 8 5.28 8 8 C8.66 8 9.32 8 10 8 C10 7.01 10 6.02 10 5 C10.66 5 11.32 5 12 5 C11.67 6.32 11.34 7.64 11 9 C8.36 9 5.72 9 3 9 C3 11.97 3 14.94 3 18 C2.34 17.34 1.68 16.68 1 16 C1.375 12.375 1.375 12.375 2 9 C1.34 9 0.68 9 0 9 C-0.33 10.65 -0.66 12.3 -1 14 C-1.66 14 -2.32 14 -3 14 C-3 14.33 -3 14.66 -3 15 C-3 15.99 -3 16.98 -3 18 C-3.99 18.33 -4.98 18.66 -6 19 C-6 15.7 -6 12.4 -6 9 C-6.66 8.67 -7.32 8.34 -8 8 C-7.01 8 -6.02 8 -5 8 C-5 6.68 -5 5.36 -5 4 C-3.35 3.67 -1.7 3.34 0 3 C0 2.01 0 1.02 0 0 Z " fill="#183647" transform="translate(1067,116)"/>
<path d="M0 0 C1.32 0 2.64 0 4 0 C4 10.23 4 20.46 4 31 C3.01 31 2.02 31 1 31 C-3.17622137 21.60350192 -0.89675589 9.9283688 0 0 Z " fill="#F1CB64" transform="translate(104,112)"/>
<path d="M0 0 C5.24111939 -0.13717215 9.56874001 0.23927918 14.6875 1.5 C22.74437804 3.22905583 30.78327677 3.3380686 39 3.375 C40.87884888 3.39530273 40.87884888 3.39530273 42.7956543 3.41601562 C49.63098224 3.38302349 54.76640369 2.80070778 61 0 C64 -0.1875 64 -0.1875 66 0 C59.17462691 6.82537309 46.69105481 6.41585684 37.6875 6.4375 C24.63108276 6.32843685 12.62690397 4.20904742 0 1 C0 0.67 0 0.34 0 0 Z " fill="#CAD4D9" transform="translate(399,0)"/>
<path d="M0 0 C0.66 0 1.32 0 2 0 C2 5.28 2 10.56 2 16 C-0.64 16 -3.28 16 -6 16 C-8.44897847 12.32653229 -8.31537716 10.33643601 -8 6 C-6 4 -6 4 -3.375 3.875 C-2.59125 3.91625 -1.8075 3.9575 -1 4 C-0.67 2.68 -0.34 1.36 0 0 Z " fill="#C4B066" transform="translate(295,128)"/>
<path d="M0 0 C1.48575156 2.97150312 0.89574712 5.45954029 0.66015625 8.7578125 C0.59144569 9.75238968 0.59144569 9.75238968 0.52134705 10.76705933 C0.37368321 12.88678366 0.21818571 15.0058512 0.0625 17.125 C-0.0389275 18.56116157 -0.13984535 19.99735922 -0.24023438 21.43359375 C-0.48757505 24.95616727 -0.74194475 28.47819336 -1 32 C-3 31 -3 31 -4.1015625 27.97265625 C-5.18810132 23.78980198 -5.36734702 19.74230342 -5.375 15.4375 C-5.39949219 14.70853516 -5.42398437 13.97957031 -5.44921875 13.22851562 C-5.47732717 8.02377276 -4.35424527 5.17031644 -1 1 C-0.67 0.67 -0.34 0.34 0 0 Z " fill="#294962" transform="translate(1040,103)"/>
<path d="M0 0 C1 1 1 1 1.1328125 3.21484375 C1.13023438 4.11332031 1.12765625 5.01179687 1.125 5.9375 C1.12757812 6.83339844 1.13015625 7.72929687 1.1328125 8.65234375 C1 11 1 11 0 13 C-2.875 13.1875 -2.875 13.1875 -6 13 C-8.53686376 9.19470436 -8.59355135 6.46090938 -8 2 C-5.87228278 -1.69550885 -3.80143151 -1.20045206 0 0 Z " fill="#1C3B50" transform="translate(103,126)"/>
<path d="M0 0 C3.0625 0.1875 3.0625 0.1875 5.0625 2.1875 C5.328125 4.28125 5.328125 4.28125 5.3125 6.6875 C5.31765625 7.4815625 5.3228125 8.275625 5.328125 9.09375 C5.0625 11.1875 5.0625 11.1875 3.0625 13.1875 C0 13.375 0 13.375 -2.9375 13.1875 C-3.9375 12.1875 -3.9375 12.1875 -4.0703125 9.71875 C-4.06773438 8.7184375 -4.06515625 7.718125 -4.0625 6.6875 C-4.06507812 5.6871875 -4.06765625 4.686875 -4.0703125 3.65625 C-3.87702193 0.06331935 -3.6437226 0.23257804 0 0 Z " fill="#153850" transform="translate(57.9375,125.8125)"/>
<path d="M0 0 C0 0.33 0 0.66 0 1 C-39.50559499 5.92564509 -39.50559499 5.92564509 -53 2 C-53 1.34 -53 0.68 -53 0 C-51.83597656 0.10828125 -51.83597656 0.10828125 -50.6484375 0.21875 C-39.94432624 1.13843498 -29.51626031 1.67007044 -18.875 -0.0625 C-12.39612058 -1.11055402 -6.48411173 -0.87879903 0 0 Z " fill="#C7D3DA" transform="translate(795,45)"/>
<path d="M0 0 C5.20819244 -0.28222938 8.49312175 0.31282501 13.1171875 2.703125 C14.21804688 3.27160156 15.31890625 3.84007812 16.453125 4.42578125 C18.14695312 5.32876953 18.14695312 5.32876953 19.875 6.25 C21.02742188 6.83652344 22.17984375 7.42304687 23.3671875 8.02734375 C31.79132884 12.44803113 31.79132884 12.44803113 32.83251953 15.20214844 C32.88778809 15.79543945 32.94305664 16.38873047 33 17 C28.56949392 15.63991052 24.61086264 13.89140424 20.5078125 11.7421875 C19.91700897 11.43427277 19.32620544 11.12635803 18.71749878 10.80911255 C16.85113872 9.83520491 14.98804976 8.85522261 13.125 7.875 C11.85177467 7.2092295 10.57833907 6.54386096 9.3046875 5.87890625 C6.20068121 4.25724259 3.09957584 2.63011907 0 1 C0 0.67 0 0.34 0 0 Z " fill="#EEF2F3" transform="translate(327,0)"/>
<path d="M0 0 C1.08007324 0.00161133 2.16014648 0.00322266 3.27294922 0.00488281 C4.36462402 0.00649414 5.45629883 0.00810547 6.58105469 0.00976562 C18.18802475 0.18654791 27.74819215 2.39196146 36.27294922 10.69238281 C38.33280102 14.0990608 38.20473771 16.4683296 37.89794922 20.37988281 C37.56794922 20.37988281 37.23794922 20.37988281 36.89794922 20.37988281 C36.71232422 19.34863281 36.52669922 18.31738281 36.33544922 17.25488281 C34.90361551 12.40037812 32.05353325 10.06638521 27.89794922 7.37988281 C19.6483646 3.35823216 11.77549097 2.73739274 2.71044922 2.62988281 C0.85323242 2.58541016 0.85323242 2.58541016 -1.04150391 2.54003906 C-4.06174872 2.470072 -7.08125442 2.41701457 -10.10205078 2.37988281 C-7.07782208 -0.64434589 -4.1387027 0.05907744 0 0 Z " fill="#E1EAEF" transform="translate(799.10205078125,42.6201171875)"/>
<path d="M0 0 C1.32 0 2.64 0 4 0 C4 0.99 4 1.98 4 3 C4.66 3 5.32 3 6 3 C5.84660156 3.67417969 5.69320313 4.34835938 5.53515625 5.04296875 C4.91516143 8.46877952 4.6647426 11.83893447 4.4375 15.3125 C4.35371094 16.56675781 4.26992188 17.82101563 4.18359375 19.11328125 C4.12300781 20.06589844 4.06242187 21.01851562 4 22 C2.68 22 1.36 22 0 22 C0 14.74 0 7.48 0 0 Z " fill="#F1CB65" transform="translate(253,121)"/>
<path d="M0 0 C0.33 0 0.66 0 1 0 C1.9375 3.0625 1.9375 3.0625 2 7 C-3.815664 16.3502725 -15.96753185 21.24516598 -25.8125 24.9375 C-27.03114746 25.39769531 -27.03114746 25.39769531 -28.27441406 25.8671875 C-32.66311344 27.4367759 -36.26836553 28.37334958 -41 28 C-40.67 27.34 -40.34 26.68 -40 26 C-37.48396655 25.24790837 -34.98142874 24.58013298 -32.4375 23.9375 C-21.55402678 20.98013526 -10.33113205 15.78081874 -2 8 C-1.00243506 5.91365324 -1.00243506 5.91365324 -0.6875 3.75 C-0.460625 2.5125 -0.23375 1.275 0 0 Z " fill="#D7E0E3" transform="translate(835,58)"/>
<path d="M0 0 C2.46792495 0.09123567 3.7617516 0.30729035 5.79296875 1.734375 C7.1875 3.25 7.1875 3.25 9.125 6.5625 C8.9375 9.4375 8.9375 9.4375 8.125 11.5625 C7.465 11.2325 6.805 10.9025 6.125 10.5625 C6.125 9.5725 6.125 8.5825 6.125 7.5625 C5.795 8.5525 5.465 9.5425 5.125 10.5625 C1.825 10.5625 -1.475 10.5625 -4.875 10.5625 C-4.545 8.9125 -4.215 7.2625 -3.875 5.5625 C-1.895 4.9025 0.085 4.2425 2.125 3.5625 C2.125 3.2325 2.125 2.9025 2.125 2.5625 C-2.33 3.0575 -2.33 3.0575 -6.875 3.5625 C-3.875 0.5625 -3.875 0.5625 0 0 Z " fill="#D2B967" transform="translate(122.875,120.4375)"/>
<path d="M0 0 C0.33 0 0.66 0 1 0 C1 10.56 1 21.12 1 32 C-1.33333333 32 -3.66666667 32 -6 32 C-7.7015625 32.061875 -7.7015625 32.061875 -9.4375 32.125 C-13 32 -13 32 -16 30 C-15.67 28.68 -15.34 27.36 -15 26 C-14.34 26.33 -13.68 26.66 -13 27 C-12.67 26.67 -12.34 26.34 -12 26 C-10.48071962 25.92820036 -8.95832518 25.91607993 -7.4375 25.9375 C-6.61121094 25.94652344 -5.78492187 25.95554688 -4.93359375 25.96484375 C-3.97646484 25.98224609 -3.97646484 25.98224609 -3 26 C-3 27.65 -3 29.3 -3 31 C-2.01 31 -1.02 31 0 31 C0 20.77 0 10.54 0 0 Z " fill="#C4AE60" transform="translate(108,112)"/>
<path d="M0 0 C1.32 0 2.64 0 4 0 C4 7.26 4 14.52 4 22 C2.68 22 1.36 22 0 22 C0 14.74 0 7.48 0 0 Z " fill="#F0CB67" transform="translate(242,121)"/>
<path d="M0 0 C3 -0.375 3 -0.375 6 0 C8 3 8 3 8 7 C5.69 7 3.38 7 1 7 C1.33 7.66 1.66 8.32 2 9 C3.65 9 5.3 9 7 9 C6.67 9.99 6.34 10.98 6 12 C3.6568787 11.74438677 1.32156597 11.40729228 -1 11 C-2.38550197 8.22899606 -2.1877467 6.0665294 -2 3 C-1.34 2.01 -0.68 1.02 0 0 Z " fill="#A69A5E" transform="translate(437,132)"/>
<path d="M0 0 C3.96 0.33 7.92 0.66 12 1 C12 1.99 12 2.98 12 4 C10.68 4 9.36 4 8 4 C8 7.3 8 10.6 8 14 C6.68 14 5.36 14 4 14 C3.67 12.35 3.34 10.7 3 9 C2.67 9 2.34 9 2 9 C1.34 6.03 0.68 3.06 0 0 Z " fill="#3D4F50" transform="translate(307,130)"/>
<path d="M0 0 C0.99 0.33 1.98 0.66 3 1 C3 1.66 3 2.32 3 3 C3.639375 3.268125 4.27875 3.53625 4.9375 3.8125 C7 5 7 5 8 8 C7.01 7.67 6.02 7.34 5 7 C4.773125 7.763125 4.54625 8.52625 4.3125 9.3125 C2.73268318 12.54736301 1.16717283 13.41641358 -2 15 C-1.67 16.32 -1.34 17.64 -1 19 C-1.66 19 -2.32 19 -3 19 C-2.67 19.99 -2.34 20.98 -2 22 C-3.98 21.67 -5.96 21.34 -8 21 C-8 20.34 -8 19.68 -8 19 C-8.66 18.67 -9.32 18.34 -10 18 C-8.3790787 16.82767315 -6.75313167 15.6622923 -5.125 14.5 C-4.22007813 13.8503125 -3.31515625 13.200625 -2.3828125 12.53125 C0 11 0 11 2 11 C1.649375 10.443125 1.29875 9.88625 0.9375 9.3125 C-0.22450743 6.44621501 0.30044188 4.95368983 1 2 C0.67 1.34 0.34 0.68 0 0 Z " fill="#2A434D" transform="translate(1071,44)"/>
<path d="M0 0 C1.8918457 -0.28051758 1.8918457 -0.28051758 4.17578125 -0.14453125 C5.00400391 -0.09876953 5.83222656 -0.05300781 6.68554688 -0.00585938 C7.55244141 0.05794922 8.41933594 0.12175781 9.3125 0.1875 C10.16779297 0.23197266 11.02308594 0.27644531 11.90429688 0.32226562 C16.29702353 0.59787435 19.99993464 0.99584354 24 3 C24 3.33 24 3.66 24 4 C15.26398351 6.25445587 6.70552645 4.64977828 -2 3 C-1.34 2.01 -0.68 1.02 0 0 Z " fill="#E1E7EA" transform="translate(385,23)"/>
<path d="M0 0 C2.90143563 -0.44637471 4.37294401 -0.43245241 6.8125 1.25 C8 3 8 3 8 7 C5.36 7 2.72 7 0 7 C0.33 7.66 0.66 8.32 1 9 C2.98 9 4.96 9 7 9 C7 9.66 7 10.32 7 11 C4.69 11.33 2.38 11.66 0 12 C-2.31332486 8.53001271 -2.33957563 7.07490752 -2 3 C-1.34 2.01 -0.68 1.02 0 0 Z " fill="#9E925E" transform="translate(347,132)"/>
<path d="M0 0 C2.5 0.25 2.5 0.25 4.5 2.25 C4.625 4.875 4.625 4.875 4.5 7.25 C2.19 7.25 -0.12 7.25 -2.5 7.25 C-2.17 7.91 -1.84 8.57 -1.5 9.25 C0.15 9.25 1.8 9.25 3.5 9.25 C3.17 10.24 2.84 11.23 2.5 12.25 C0.125 12.375 0.125 12.375 -2.5 12.25 C-4.5 10.25 -4.5 10.25 -4.765625 8.375 C-4.76046875 7.67375 -4.7553125 6.9725 -4.75 6.25 C-4.75515625 5.54875 -4.7603125 4.8475 -4.765625 4.125 C-4.31971142 0.97737476 -3.03899237 0.30389924 0 0 Z " fill="#DEC065" transform="translate(518.5,131.75)"/>
<path d="M0 0 C2.5 0.25 2.5 0.25 4.5 2.25 C4.625 4.875 4.625 4.875 4.5 7.25 C2.19 7.25 -0.12 7.25 -2.5 7.25 C-2.17 7.91 -1.84 8.57 -1.5 9.25 C0.15 9.25 1.8 9.25 3.5 9.25 C3.83 9.91 4.16 10.57 4.5 11.25 C1.125 11.875 1.125 11.875 -2.5 12.25 C-4.5 10.25 -4.5 10.25 -4.765625 8.375 C-4.76046875 7.67375 -4.7553125 6.9725 -4.75 6.25 C-4.75515625 5.54875 -4.7603125 4.8475 -4.765625 4.125 C-4.31971142 0.97737476 -3.03899237 0.30389924 0 0 Z " fill="#DCC069" transform="translate(416.5,131.75)"/>
<path d="M0 0 C2.5 0.25 2.5 0.25 4.5 2.25 C4.625 4.875 4.625 4.875 4.5 7.25 C2.19 7.25 -0.12 7.25 -2.5 7.25 C-2.17 7.91 -1.84 8.57 -1.5 9.25 C0.15 9.25 1.8 9.25 3.5 9.25 C3.83 9.91 4.16 10.57 4.5 11.25 C1.125 11.875 1.125 11.875 -2.5 12.25 C-4.5 10.25 -4.5 10.25 -4.765625 8.375 C-4.76046875 7.67375 -4.7553125 6.9725 -4.75 6.25 C-4.75515625 5.54875 -4.7603125 4.8475 -4.765625 4.125 C-4.31971142 0.97737476 -3.03899237 0.30389924 0 0 Z " fill="#AEA05F" transform="translate(404.5,131.75)"/>
<path d="M0 0 C1.65 1.32 3.3 2.64 5 4 C4.67 5.65 4.34 7.3 4 9 C-0.29 9 -4.58 9 -9 9 C-8 5 -8 5 -6 3 C-3.375 2.875 -3.375 2.875 -1 3 C-0.67 2.01 -0.34 1.02 0 0 Z " fill="#D5B963" transform="translate(231,122)"/>
<path d="M0 0 C8 0 8 0 9.98828125 1.11328125 C11.46121259 3.86009916 11.28724002 6.09555951 11.1875 9.1875 C11.16042969 10.27417969 11.13335937 11.36085937 11.10546875 12.48046875 C11.07066406 13.31191406 11.03585937 14.14335937 11 15 C10.01 15.495 10.01 15.495 9 16 C8.8046875 13.94921875 8.609375 11.8984375 8.4140625 9.84765625 C8.20910156 8.93306641 8.20910156 8.93306641 8 8 C7.34 7.67 6.68 7.34 6 7 C6.66 7 7.32 7 8 7 C8 5.68 8 4.36 8 3 C6.02 3 4.04 3 2 3 C1.67 7.29 1.34 11.58 1 16 C0.67 16 0.34 16 0 16 C0 10.72 0 5.44 0 0 Z " fill="#D4BA67" transform="translate(386,127)"/>
<path d="M0 0 C1.010625 -0.020625 2.02125 -0.04125 3.0625 -0.0625 C6 0 6 0 8 1 C7.4375 2.9375 7.4375 2.9375 6 5 C3.69 5.33 1.38 5.66 -1 6 C-1.33 11.61 -1.66 17.22 -2 23 C-3.65 23 -5.3 23 -7 23 C-5.68 22.67 -4.36 22.34 -3 22 C-3.0721875 20.79601562 -3.144375 19.59203125 -3.21875 18.3515625 C-3.31253089 16.77604351 -3.4062792 15.20052257 -3.5 13.625 C-3.54769531 12.8309375 -3.59539062 12.036875 -3.64453125 11.21875 C-4 5.2265625 -4 5.2265625 -4 3 C-4.66 2.34 -5.32 1.68 -6 1 C-3 0 -3 0 0 0 Z " fill="#C7B063" transform="translate(208,121)"/>
<path d="M0 0 C4.875 0.875 4.875 0.875 6 2 C9.20049657 2.17299981 11.92954549 1.9097643 15 1 C15.33 2.32 15.66 3.64 16 5 C12.83378453 7.11081032 9.74696809 7.46583685 5.97265625 7.40234375 C2.65690031 6.72606085 1.03877415 4.54846769 -1 2 C-0.67 1.34 -0.34 0.68 0 0 Z " fill="#D9BC64" transform="translate(219,137)"/>
<path d="M0 0 C0.66 0 1.32 0 2 0 C2.33 1.32 2.66 2.64 3 4 C4.175625 3.9071875 4.175625 3.9071875 5.375 3.8125 C6.674375 3.9053125 6.674375 3.9053125 8 4 C10.13586678 7.20380017 10.23132175 8.01939967 10.125 11.6875 C10.10695313 12.49574219 10.08890625 13.30398437 10.0703125 14.13671875 C10.03550781 15.05904297 10.03550781 15.05904297 10 16 C9.01 16 8.02 16 7 16 C6.67 13.03 6.34 10.06 6 7 C5.01 7 4.02 7 3 7 C2.67 9.64 2.34 12.28 2 15 C1.34 15 0.68 15 0 15 C0 10.05 0 5.1 0 0 Z " fill="#D9C06E" transform="translate(482,128)"/>
<path d="M0 0 C3.26460973 1.80412643 4.88929795 2.83394693 7 6 C7.07905064 8.33199388 7.08798769 10.66832622 7 13 C6.67 13 6.34 13 6 13 C6 11.35 6 9.7 6 8 C5.34 7.67 4.68 7.34 4 7 C4.33 6.34 4.66 5.68 5 5 C4.01 5.495 4.01 5.495 3 6 C2.67 6.99 2.34 7.98 2 9 C-0.97 9 -3.94 9 -7 9 C-6.67 7.68 -6.34 6.36 -6 5 C-4.35 4.67 -2.7 4.34 -1 4 C-0.67 2.68 -0.34 1.36 0 0 Z " fill="#CCB568" transform="translate(189,121)"/>
<path d="M0 0 C0.99 0 1.98 0 3 0 C3 2.97 3 5.94 3 9 C4.65 9 6.3 9 8 9 C8 6.03 8 3.06 8 0 C8.66 0 9.32 0 10 0 C10 3.96 10 7.92 10 12 C3.51747312 12.36693548 3.51747312 12.36693548 1.28125 10.78125 C-0.3746715 8.47911524 -0.3094704 7.11781917 -0.1875 4.3125 C-0.16042969 3.50425781 -0.13335937 2.69601563 -0.10546875 1.86328125 C-0.07066406 1.24839844 -0.03585937 0.63351563 0 0 Z " fill="#D6B962" transform="translate(494,132)"/>
<path d="M0 0 C5.94 0 11.88 0 18 0 C18 0.99 18 1.98 18 3 C17.02417969 3.01417969 16.04835938 3.02835937 15.04296875 3.04296875 C13.13451172 3.11451172 13.13451172 3.11451172 11.1875 3.1875 C9.29064453 3.23970703 9.29064453 3.23970703 7.35546875 3.29296875 C3.82244159 3.64953725 3.82244159 3.64953725 2.11328125 6.55078125 C1.74589844 7.35902344 1.37851562 8.16726562 1 9 C0.67 9 0.34 9 0 9 C0 6.03 0 3.06 0 0 Z " fill="#F2CC64" transform="translate(27,113)"/>
<path d="M0 0 C1.32 0.33 2.64 0.66 4 1 C4 6.28 4 11.56 4 17 C2.68 17 1.36 17 0 17 C0 11.39 0 5.78 0 0 Z " fill="#F0CC68" transform="translate(267,126)"/>
<path d="M0 0 C0.99 0.66 1.98 1.32 3 2 C5.4582293 2.16671852 5.4582293 2.16671852 8 2 C9.32 2 10.64 2 12 2 C12 2.99 12 3.98 12 5 C8.33952058 7.44031962 5.25894744 7.73696072 1 7 C-1.5 5 -1.5 5 -3 3 C-2.01 2.01 -1.02 1.02 0 0 Z " fill="#DCBE65" transform="translate(118,137)"/>
<path d="M0 0 C1.4540625 0.0309375 1.4540625 0.0309375 2.9375 0.0625 C3.2675 1.0525 3.5975 2.0425 3.9375 3.0625 C0.9675 2.5675 0.9675 2.5675 -2.0625 2.0625 C-1.16914203 4.42035318 -1.16914203 4.42035318 2 5.1875 C3.4540625 5.620625 3.4540625 5.620625 4.9375 6.0625 C4.0625 10.9375 4.0625 10.9375 2.9375 12.0625 C-2.59191176 12.29779412 -2.59191176 12.29779412 -5.0625 11.0625 C-5.0625 10.4025 -5.0625 9.7425 -5.0625 9.0625 C-2.7525 9.0625 -0.4425 9.0625 1.9375 9.0625 C2.2675 8.4025 2.5975 7.7425 2.9375 7.0625 C1.4834375 7.0934375 1.4834375 7.0934375 0 7.125 C-3.0625 7.0625 -3.0625 7.0625 -4.0625 6.0625 C-4.1875 3.5625 -4.1875 3.5625 -4.0625 1.0625 C-3.0625 0.0625 -3.0625 0.0625 0 0 Z " fill="#E1C161" transform="translate(428.0625,131.9375)"/>
<path d="M0 0 C0.66 0.99 1.32 1.98 2 3 C1.67 3.99 1.34 4.98 1 6 C0.93062938 8.22818441 0.91542916 10.45834524 0.9375 12.6875 C0.94652344 13.86699219 0.95554687 15.04648438 0.96484375 16.26171875 C0.97644531 17.16535156 0.98804687 18.06898438 1 19 C0.01 19.33 -0.98 19.66 -2 20 C-3.10844919 16.67465243 -2.84454356 14.37817425 -2 11 C-2.99 11.99 -3.98 12.98 -5 14 C-5.36820084 6.63598326 -5.36820084 6.63598326 -3.625 3.625 C-2.41666667 2.41666667 -1.20833333 1.20833333 0 0 Z " fill="#143750" transform="translate(114,121)"/>
<path d="M0 0 C4.29777466 0.61115144 8.18062516 1.6278435 12.2734375 3.06640625 C13.42714844 3.46923828 14.58085937 3.87207031 15.76953125 4.28710938 C16.95933594 4.70798828 18.14914062 5.12886719 19.375 5.5625 C21.19451172 6.19961914 21.19451172 6.19961914 23.05078125 6.84960938 C26.03540754 7.89540363 29.01838236 8.94566493 32 10 C32 10.33 32 10.66 32 11 C24.62049587 10.50447545 18.40345095 8.65588417 11.5 6.0625 C10.4996875 5.70220703 9.499375 5.34191406 8.46875 4.97070312 C1.13217149 2.26434298 1.13217149 2.26434298 0 0 Z " fill="#DAE1E4" transform="translate(358,0)"/>
<path d="M0 0 C6.15234375 -0.09765625 6.15234375 -0.09765625 8 0 C9 1 9 1 9.09765625 3.50390625 C9.08605469 4.51324219 9.07445312 5.52257812 9.0625 6.5625 C9.05347656 7.57441406 9.04445313 8.58632812 9.03515625 9.62890625 C9.02355469 10.41136719 9.01195312 11.19382813 9 12 C8.34 12 7.68 12 7 12 C6.67 9.03 6.34 6.06 6 3 C5.01 3 4.02 3 3 3 C2.67 5.64 2.34 8.28 2 11 C1.34 11 0.68 11 0 11 C0 7.37 0 3.74 0 0 Z " fill="#DEC36F" transform="translate(526,132)"/>
<path d="M0 0 C3.96 0 7.92 0 12 0 C12 2.31 12 4.62 12 7 C14.97 7.495 14.97 7.495 18 8 C17.67 8.99 17.34 9.98 17 11 C10.69072165 9.94845361 10.69072165 9.94845361 8 8 C6.75 4.875 6.75 4.875 6 2 C4.02 2 2.04 2 0 2 C0 1.34 0 0.68 0 0 Z " fill="#224152" transform="translate(413,131)"/>
<path d="M0 0 C0.99 0.33 1.98 0.66 3 1 C3 1.66 3 2.32 3 3 C3.99 3.33 4.98 3.66 6 4 C5.34 4 4.68 4 4 4 C4 7.96 4 11.92 4 16 C3.34 16 2.68 16 2 16 C2 15.34 2 14.68 2 14 C1.34 14 0.68 14 0 14 C0 9.38 0 4.76 0 0 Z " fill="#1B3746" transform="translate(366,128)"/>
<path d="M0 0 C0.99 0.33 1.98 0.66 3 1 C3.08121924 2.60332791 3.13929134 4.20784026 3.1875 5.8125 C3.22230469 6.70582031 3.25710937 7.59914062 3.29296875 8.51953125 C3 11 3 11 1.6484375 12.8359375 C0 14 0 14 -2.5625 13.8125 C-5 13 -5 13 -7 11 C-5.68 11.33 -4.36 11.66 -3 12 C-2.01 8.04 -1.02 4.08 0 0 Z " fill="#F0CA63" transform="translate(64,129)"/>
<path d="M0 0 C1.46849261 0.29901433 2.93338512 0.616154 4.39453125 0.94921875 C5.14412109 1.10583984 5.89371094 1.26246094 6.66601562 1.42382812 C8.51632029 1.81274567 10.36217197 2.22273997 12.20703125 2.63671875 C12.20703125 3.62671875 12.20703125 4.61671875 12.20703125 5.63671875 C8.11616673 7.31312973 4.49192107 5.87765065 0.45703125 4.69921875 C-0.24035156 4.50392578 -0.93773437 4.30863281 -1.65625 4.10742188 C-3.37095848 3.62589415 -5.08231752 3.13246718 -6.79296875 2.63671875 C-4.78229324 -0.58195153 -3.85057955 -0.36879907 0 0 Z " fill="#DFE5E6" transform="translate(741.79296875,104.36328125)"/>
<path d="M0 0 C0 0.99 0 1.98 0 3 C-1.65 3 -3.3 3 -5 3 C-5 4.98 -5 6.96 -5 9 C-3.35 9 -1.7 9 0 9 C-0.33 9.99 -0.66 10.98 -1 12 C-3.74086056 12.22223194 -5.43963721 12.34781139 -7.8125 10.875 C-9.55198782 8.12844028 -9.39769128 6.18153026 -9 3 C-6.77089201 -0.71517998 -4.03410755 -0.2689405 0 0 Z " fill="#D7BB62" transform="translate(479,132)"/>
<path d="M0 0 C3.3 0 6.6 0 10 0 C10 0.99 10 1.98 10 3 C10.66 3.33 11.32 3.66 12 4 C8.88578592 5.8454602 6.61678684 6.46369062 3 6 C1.1875 4.6875 1.1875 4.6875 0 3 C0 2.01 0 1.02 0 0 Z " fill="#19394E" transform="translate(222,134)"/>
<path d="M0 0 C0.66 1.32 1.32 2.64 2 4 C-1 5 -1 5 -3.0625 5.5 C-5.06256771 5.94398007 -5.06256771 5.94398007 -7 7 C-7 6.01 -7 5.02 -7 4 C-7.99 4 -8.98 4 -10 4 C-10.33 4.99 -10.66 5.98 -11 7 C-10.6875 4.625 -10.6875 4.625 -10 2 C-6.3558226 -0.4294516 -4.28758728 -0.16179575 0 0 Z " fill="#E0C26A" transform="translate(102,121)"/>
<path d="M0 0 C0.99 0 1.98 0 3 0 C3.33 5.61 3.66 11.22 4 17 C2.68 16.34 1.36 15.68 0 15 C0 10.05 0 5.1 0 0 Z " fill="#817F5B" transform="translate(357,127)"/>
<path d="M0 0 C1.5778125 0.1546875 1.5778125 0.1546875 3.1875 0.3125 C3.5175 1.6325 3.8475 2.9525 4.1875 4.3125 C1.87777779 5.4673611 -0.28767333 5.80753467 -2.8125 6.3125 C-3.8025 6.8075 -3.8025 6.8075 -4.8125 7.3125 C-4.8125 6.3225 -4.8125 5.3325 -4.8125 4.3125 C-5.4725 4.3125 -6.1325 4.3125 -6.8125 4.3125 C-6.8125 4.9725 -6.8125 5.6325 -6.8125 6.3125 C-7.4725 5.9825 -8.1325 5.6525 -8.8125 5.3125 C-5.88314862 1.76177106 -4.6956049 0.38488565 0 0 Z " fill="#D7BD6D" transform="translate(226.8125,120.6875)"/>
<path d="M0 0 C0.99 0 1.98 0 3 0 C3.33 5.28 3.66 10.56 4 16 C2.68 16 1.36 16 0 16 C0 10.72 0 5.44 0 0 Z " fill="#C0AE68" transform="translate(507,127)"/>
<path d="M0 0 C0.33 0.66 0.66 1.32 1 2 C1.66 2 2.32 2 3 2 C3.33 1.34 3.66 0.68 4 0 C4 1.65 4 3.3 4 5 C-0.62 5 -5.24 5 -10 5 C-10.33 3.68 -10.66 2.36 -11 1 C-7.37 1.33 -3.74 1.66 0 2 C0 1.34 0 0.68 0 0 Z " fill="#F2CC63" transform="translate(232,129)"/>
<path d="M0 0 C4.77609498 1.64178265 8.79382904 4.26546702 13 7 C12.01 7.495 12.01 7.495 11 8 C10.67 8.66 10.34 9.32 10 10 C8.35048774 9.04801289 6.70548492 8.08820855 5.0625 7.125 C4.14597656 6.59132813 3.22945312 6.05765625 2.28515625 5.5078125 C0 4 0 4 -1 2 C-0.67 1.34 -0.34 0.68 0 0 Z " fill="#E5EAEC" transform="translate(623,35)"/>
<path d="M0 0 C0 0.33 0 0.66 0 1 C-8.49444469 1.92109594 -16.72353472 2.00039993 -25.25 1.5625 C-26.38824219 1.51029297 -27.52648437 1.45808594 -28.69921875 1.40429688 C-31.46654766 1.27639512 -34.2333411 1.14154253 -37 1 C-37 0.67 -37 0.34 -37 0 C-33.01674588 -0.16916555 -29.03323891 -0.32953886 -25.04931641 -0.48217773 C-23.03660132 -0.56106542 -21.02415356 -0.64668151 -19.01171875 -0.73242188 C-12.53737155 -0.97642994 -6.39407247 -1.10102013 0 0 Z " fill="#A5B1B8" transform="translate(449,14)"/>
<path d="M0 0 C0 1.32 0 2.64 0 4 C-3.67410785 5.17571451 -7.16929183 5.07366746 -11 5 C-10.67 3.68 -10.34 2.36 -10 1 C-6.61981469 -0.04005702 -3.5219721 -0.08004482 0 0 Z " fill="#DFE4E6" transform="translate(240,8)"/>
<path d="M0 0 C-1 3 -1 3 -3 4 C-5.6723621 4.13415472 -8.32250488 4.04318541 -11 4 C-11 2.68 -11 1.36 -11 0 C-6.98195309 -0.84098656 -3.98196457 -1.05404945 0 0 Z " fill="#DEE5E8" transform="translate(441,51)"/>
<path d="M0 0 C3.91211733 1.15585285 6.8745041 2.35534962 10 5 C9.67 5.99 9.34 6.98 9 8 C5.00544473 7.38545304 2.25533664 5.29353263 -1 3 C-0.67 2.01 -0.34 1.02 0 0 Z " fill="#DCE4E6" transform="translate(357,33)"/>
<path d="M0 0 C-5.42791666 3.61861111 -11.68295272 3.11082539 -18 3 C-17.67 2.34 -17.34 1.68 -17 1 C-14.19921875 0.078125 -14.19921875 0.078125 -10.6875 -0.75 C-8.96080078 -1.17539063 -8.96080078 -1.17539063 -7.19921875 -1.609375 C-3.89235923 -2.01314295 -2.70009507 -1.84006479 0 0 Z " fill="#F2F5F5" transform="translate(499,14)"/>
<path d="M0 0 C3.63 0 7.26 0 11 0 C11 1.32 11 2.64 11 4 C7.37 4 3.74 4 0 4 C0 2.68 0 1.36 0 0 Z " fill="#D7DEE2" transform="translate(759,4)"/>
<path d="M0 0 C0.5625 1.9375 0.5625 1.9375 1 4 C-1.04698414 6.04698414 -5.30411241 5.70045693 -8 6 C-8.33 4.68 -8.66 3.36 -9 2 C-5.5647952 -0.29013653 -4.014669 -0.17842973 0 0 Z " fill="#DDC16A" transform="translate(151,121)"/>
<path d="M0 0 C1.32 0.33 2.64 0.66 4 1 C2.55873214 4.36295835 0.79407345 6.62927102 -2 9 C-2.99 9 -3.98 9 -5 9 C-4.67 7.35 -4.34 5.7 -4 4 C-3.01 3.67 -2.02 3.34 -1 3 C-0.67 2.01 -0.34 1.02 0 0 Z " fill="#DBE3E6" transform="translate(874,90)"/>
<path d="M0 0 C3.3 0.33 6.6 0.66 10 1 C10.33 2.32 10.66 3.64 11 5 C3.57142857 5.28571429 3.57142857 5.28571429 0 3 C0 2.01 0 1.02 0 0 Z " fill="#E2E9EB" transform="translate(391,49)"/>
<path d="M0 0 C4.455 0.99 4.455 0.99 9 2 C9.33 3.32 9.66 4.64 10 6 C5.94393835 5.53199289 2.53411321 5.12046792 -1 3 C-0.67 2.01 -0.34 1.02 0 0 Z " fill="#ECF1F1" transform="translate(565,36)"/>
<path d="M0 0 C1.98 0.99 1.98 0.99 4 2 C4 1.34 4 0.68 4 0 C6.64 0.33 9.28 0.66 12 1 C11.67 2.32 11.34 3.64 11 5 C9.68 5 8.36 5 7 5 C5.700625 5.061875 5.700625 5.061875 4.375 5.125 C2 5 2 5 0 3 C0 2.01 0 1.02 0 0 Z " fill="#1F3E53" transform="translate(119,135)"/>
<path d="M0 0 C1.98 0 3.96 0 6 0 C6 0.66 6 1.32 6 2 C4.68 2 3.36 2 2 2 C2 2.66 2 3.32 2 4 C2.99 4 3.98 4 5 4 C5 4.66 5 5.32 5 6 C4.01 6 3.02 6 2 6 C2 6.66 2 7.32 2 8 C3.32 8 4.64 8 6 8 C6 8.66 6 9.32 6 10 C4.02 10 2.04 10 0 10 C0 6.7 0 3.4 0 0 Z " fill="#ABA067" transform="translate(1070,125)"/>
<path d="M0 0 C1.98 0 3.96 0 6 0 C6 0.33 6 0.66 6 1 C4.35 1 2.7 1 1 1 C1 1.66 1 2.32 1 3 C2.32 3 3.64 3 5 3 C5.33 4.98 5.66 6.96 6 9 C4.02 9 2.04 9 0 9 C0 6.03 0 3.06 0 0 Z " fill="#938F63" transform="translate(1061,104)"/>
<path d="M0 0 C1.98 0 3.96 0 6 0 C7 3 7 3 6 6 C6.33 6.99 6.66 7.98 7 9 C6.34 9 5.68 9 5 9 C4.67 7.68 4.34 6.36 4 5 C3.01 5 2.02 5 1 5 C0.67 6.32 0.34 7.64 0 9 C0 6.03 0 3.06 0 0 Z " fill="#ACA36E" transform="translate(1068,104)"/>
<path d="M0 0 C0.99 0 1.98 0 3 0 C2.49942848 4.38000076 1.06806466 6.84169815 -2 10 C-2.99 10 -3.98 10 -5 10 C-4.49942848 5.61999924 -3.06806466 3.15830185 0 0 Z " fill="#E1E8EA" transform="translate(886,75)"/>
<path d="M0 0 C3.3 0 6.6 0 10 0 C10 1.32 10 2.64 10 4 C6.7 4 3.4 4 0 4 C0 2.68 0 1.36 0 0 Z " fill="#DCE4E7" transform="translate(410,52)"/>
<path d="M0 0 C0.99 0 1.98 0 3 0 C2.67 3.3 2.34 6.6 2 10 C0.68 10.33 -0.64 10.66 -2 11 C-1.85957123 9.35369672 -1.71250671 7.70795821 -1.5625 6.0625 C-1.48128906 5.14597656 -1.40007813 4.22945312 -1.31640625 3.28515625 C-1 1 -1 1 0 0 Z " fill="#DEE6E9" transform="translate(902,42)"/>
<path d="M0 0 C3.71888239 0.50712033 6.73454239 1.11608215 10 3 C10 4.32 10 5.64 10 7 C6.06380262 6.43768609 3.20807554 5.38314183 0 3 C0 2.01 0 1.02 0 0 Z " fill="#DFE6E9" transform="translate(373,42)"/>
<path d="M0 0 C3.3 0 6.6 0 10 0 C10 1.32 10 2.64 10 4 C6.7 4 3.4 4 0 4 C0 2.68 0 1.36 0 0 Z " fill="#EFF3F4" transform="translate(526,32)"/>
<path d="M0 0 C3.3 0 6.6 0 10 0 C9.67 1.32 9.34 2.64 9 4 C5.7 4 2.4 4 -1 4 C-0.67 2.68 -0.34 1.36 0 0 Z " fill="#F8FBFA" transform="translate(211,11)"/>
<path d="M0 0 C4.05606165 0.46800711 7.46588679 0.87953208 11 3 C11 3.99 11 4.98 11 6 C6.94393835 5.53199289 3.53411321 5.12046792 0 3 C0 2.01 0 1.02 0 0 Z " fill="#E5EAEC" transform="translate(306,7)"/>
<path d="M0 0 C-0.33 1.32 -0.66 2.64 -1 4 C-3.97 4.66 -6.94 5.32 -10 6 C-10 4.68 -10 3.36 -10 2 C-6.49223216 0.39644899 -3.85645121 -0.22036864 0 0 Z " fill="#E8EDEE" transform="translate(815,134)"/>
<path d="M0 0 C0 0.99 0 1.98 0 3 C-2.31 2.67 -4.62 2.34 -7 2 C-6.67 3.65 -6.34 5.3 -6 7 C-6.99 7 -7.98 7 -9 7 C-10.31236443 2.5856833 -10.31236443 2.5856833 -9 0.125 C-5.89740743 -1.62020832 -3.3726293 -0.69997967 0 0 Z " fill="#D0BA6E" transform="translate(467,128)"/>
<path d="M0 0 C4.62 0 9.24 0 14 0 C14 0.99 14 1.98 14 3 C9.38 3 4.76 3 0 3 C0 2.01 0 1.02 0 0 Z " fill="#F3CB62" transform="translate(29,127)"/>
<path d="M0 0 C1.98 0 3.96 0 6 0 C6.33 1.32 6.66 2.64 7 4 C5.35 4.33 3.7 4.66 2 5 C2 6.32 2 7.64 2 9 C1.34 9 0.68 9 0 9 C0 6.03 0 3.06 0 0 Z " fill="#A79C62" transform="translate(1052,104)"/>
<path d="M0 0 C4.40114397 0.50298788 6.71195019 2.08772731 10 5 C9.67 5.99 9.34 6.98 9 8 C5.56801397 6.76067171 2.69674368 5.49698489 0 3 C0 2.01 0 1.02 0 0 Z " fill="#E6EEF0" transform="translate(632,69)"/>
<path d="M0 0 C1.8871875 0.0309375 1.8871875 0.0309375 3.8125 0.0625 C2.8125 3.0625 2.8125 3.0625 0.5625 4.25 C-2.18541147 5.06188294 -4.34197889 5.22510121 -7.1875 5.0625 C-7.1875 3.7425 -7.1875 2.4225 -7.1875 1.0625 C-4.43671116 0.14557039 -2.82801087 -0.04636083 0 0 Z " fill="#E2EAEC" transform="translate(456.1875,46.9375)"/>
<path d="M0 0 C1.22589844 0.01353516 1.22589844 0.01353516 2.4765625 0.02734375 C3.41628906 0.04474609 3.41628906 0.04474609 4.375 0.0625 C4.045 1.3825 3.715 2.7025 3.375 4.0625 C0.075 4.0625 -3.225 4.0625 -6.625 4.0625 C-6.625 3.0725 -6.625 2.0825 -6.625 1.0625 C-4.21954362 -0.14022819 -2.67503047 -0.03821472 0 0 Z " fill="#E5EBEC" transform="translate(512.625,33.9375)"/>
<path d="M0 0 C3.66881155 0.70554068 6.70450534 2.27735506 10 4 C10 4.99 10 5.98 10 7 C5.6109185 6.48964169 2.66291938 5.47785723 -1 3 C-0.67 2.01 -0.34 1.02 0 0 Z " fill="#E7EEF0" transform="translate(324,14)"/>
<path d="M0 0 C0 1.32 0 2.64 0 4 C-3.3 4.33 -6.6 4.66 -10 5 C-10 4.01 -10 3.02 -10 2 C-6.49223216 0.39644899 -3.85645121 -0.22036864 0 0 Z " fill="#DDE4E7" transform="translate(808,0)"/>
<path d="M0 0 C3.3 0.66 6.6 1.32 10 2 C10 2.99 10 3.98 10 5 C2.57142857 5.28571429 2.57142857 5.28571429 -1 3 C-0.67 2.01 -0.34 1.02 0 0 Z " fill="#E8EEEF" transform="translate(747,134)"/>
<path d="M0 0 C3.93619738 0.56231391 6.79192446 1.61685817 10 4 C10 4.99 10 5.98 10 7 C6.44219804 6.39009109 3.3171411 5.4216319 0 4 C0 2.68 0 1.36 0 0 Z " fill="#F1F7F6" transform="translate(711,120)"/>
<path d="M0 0 C1.98 0 3.96 0 6 0 C6.33 1.32 6.66 2.64 7 4 C5.35 4.33 3.7 4.66 2 5 C2 6.32 2 7.64 2 9 C1.34 9 0.68 9 0 9 C0 6.03 0 3.06 0 0 Z " fill="#A19662" transform="translate(1060,115)"/>
<path d="M0 0 C3.48624056 0.6456001 6.12498789 1.92360237 9 4 C9 4.99 9 5.98 9 7 C4.78087253 6.5205537 2.20336822 5.83374881 -1 3 C-0.67 2.01 -0.34 1.02 0 0 Z " fill="#EAEFF0" transform="translate(695,111)"/>
<path d="M0 0 C-0.5409931 3.78695173 -2.03432464 5.62745972 -5 8 C-6.32 8 -7.64 8 -9 8 C-8.66410006 4.86493389 -7.97334828 3.974751 -5.625 1.75 C-3 0 -3 0 0 0 Z " fill="#E2EAEC" transform="translate(864,104)"/>
<path d="M0 0 C3.93619738 0.56231391 6.79192446 1.61685817 10 4 C10 4.99 10 5.98 10 7 C6.06380262 6.43768609 3.20807554 5.38314183 0 3 C0 2.01 0 1.02 0 0 Z " fill="#EDF1F2" transform="translate(616,59)"/>
<path d="M0 0 C3.71888239 0.50712033 6.73454239 1.11608215 10 3 C10 3.99 10 4.98 10 6 C5.94393835 5.53199289 2.53411321 5.12046792 -1 3 C-0.67 2.01 -0.34 1.02 0 0 Z " fill="#E3EAED" transform="translate(583,42)"/>
<path d="M0 0 C3.63 0 7.26 0 11 0 C11 1.32 11 2.64 11 4 C3.57142857 4.14285714 3.57142857 4.14285714 0 3 C0 2.01 0 1.02 0 0 Z " fill="#E7EDEE" transform="translate(190,11)"/>
<path d="M0 0 C3.13506611 0.33589994 4.025249 1.02665172 6.25 3.375 C8 6 8 6 8 9 C4.86493389 8.66410006 3.974751 7.97334828 1.75 5.625 C0 3 0 3 0 0 Z " fill="#E6ECEE" transform="translate(891,9)"/>
<path d="M0 0 C0.66 0 1.32 0 2 0 C2 4.95 2 9.9 2 15 C1.67 14.34 1.34 13.68 1 13 C0.34 12.67 -0.32 12.34 -1 12 C-1 10.35 -1 8.7 -1 7 C-2.32 6.67 -3.64 6.34 -5 6 C-5 5.34 -5 4.68 -5 4 C-3.68 4 -2.36 4 -1 4 C-0.67 2.68 -0.34 1.36 0 0 Z " fill="#E8CA70" transform="translate(295,128)"/>
<path d="M0 0 C0.33 0.66 0.66 1.32 1 2 C2.98 2 4.96 2 7 2 C7 2.33 7 2.66 7 3 C5.35 3 3.7 3 2 3 C2 5.97 2 8.94 2 12 C1.67 11.01 1.34 10.02 1 9 C-0.98 9 -2.96 9 -5 9 C-3.68 8.34 -2.36 7.68 -1 7 C-1 6.01 -1 5.02 -1 4 C-3.97 3.505 -3.97 3.505 -7 3 C-7 2.67 -7 2.34 -7 2 C-4.69 1.34 -2.38 0.68 0 0 Z " fill="#364C4B" transform="translate(1059,101)"/>
<path d="M0 0 C0.99 0.33 1.98 0.66 3 1 C2.47557578 4.7758544 1.67345333 7.22372155 -1 10 C-1.99 10 -2.98 10 -4 10 C-3.43454163 6.04179141 -2.19097652 3.3340947 0 0 Z " fill="#E9EFF0" transform="translate(896,59)"/>
<path d="M0 0 C3.95820859 0.56545837 6.6659053 1.80902348 10 4 C9.67 4.99 9.34 5.98 9 7 C2.25 5.25 2.25 5.25 0 3 C0 2.01 0 1.02 0 0 Z " fill="#E4EBED" transform="translate(600,50)"/>
<path d="M0 0 C-0.33 0.99 -0.66 1.98 -1 3 C-4.3 3.33 -7.6 3.66 -11 4 C-11 3.01 -11 2.02 -11 1 C-6.87831311 -0.62950412 -4.29299643 -1.26264601 0 0 Z " fill="#E7ECED" transform="translate(498,38)"/>
<path d="M0 0 C7.42857143 -0.14285714 7.42857143 -0.14285714 11 1 C11 1.99 11 2.98 11 4 C7.7 4 4.4 4 1 4 C0.67 2.68 0.34 1.36 0 0 Z " fill="#EDF0F1" transform="translate(545,33)"/>
<path d="M0 0 C4.14536674 0.4710644 6.9919792 0.9919792 10 4 C10 4.99 10 5.98 10 7 C6.06380262 6.43768609 3.20807554 5.38314183 0 3 C0 2.01 0 1.02 0 0 Z " fill="#E8EFF0" transform="translate(340,24)"/>
<path d="M0 0 C1.43931117 0.45261358 2.87638999 0.91232979 4.3125 1.375 C5.11300781 1.63023438 5.91351562 1.88546875 6.73828125 2.1484375 C9 3 9 3 12 5 C10.0625 6.25 10.0625 6.25 7 7 C3.83814601 5.97424804 0.93660469 4.54827524 -2 3 C-1.34 2.01 -0.68 1.02 0 0 Z " fill="#DAE2E5" transform="translate(586,16)"/>
<path d="M0 0 C3.3 0 6.6 0 10 0 C9 3 9 3 7 4 C4.3276379 4.13415472 1.67749512 4.04318541 -1 4 C-0.67 2.68 -0.34 1.36 0 0 Z " fill="#EAEEEF" transform="translate(250,5)"/>
<path d="M0 0 C4.05606165 0.46800711 7.46588679 0.87953208 11 3 C10.67 3.99 10.34 4.98 10 6 C6.05879291 5.43697042 3.2491277 4.3208055 0 2 C0 1.34 0 0.68 0 0 Z " fill="#EDF2F3" transform="translate(172,5)"/>
<path d="M0 0 C0 1.32 0 2.64 0 4 C-3.63 4 -7.26 4 -11 4 C-10.67 3.01 -10.34 2.02 -10 1 C-6.59437148 0.22157062 -3.49234244 -0.09978121 0 0 Z " fill="#C2CDD1" transform="translate(789,3)"/>
<path d="M0 0 C0.66 0 1.32 0 2 0 C2 0.66 2 1.32 2 2 C3.65 2 5.3 2 7 2 C5.68 2.33 4.36 2.66 3 3 C3.33 3.99 3.66 4.98 4 6 C5.65 6 7.3 6 9 6 C8.67 6.99 8.34 7.98 8 9 C5.6568787 8.74438677 3.32156597 8.40729228 1 8 C-0.35439668 5.29120665 -0.06501451 2.99066732 0 0 Z " fill="#D4BB68" transform="translate(435,135)"/>
<path d="M0 0 C3.63 0.33 7.26 0.66 11 1 C11 1.99 11 2.98 11 4 C7.7 4 4.4 4 1 4 C0.67 2.68 0.34 1.36 0 0 Z " fill="#F1F4F4" transform="translate(765,138)"/>
<path d="M0 0 C0.66 0 1.32 0 2 0 C2.33 2.64 2.66 5.28 3 8 C-3.52307692 8.36923077 -3.52307692 8.36923077 -5.9375 6.5 C-6.4634375 5.7575 -6.4634375 5.7575 -7 5 C-5.02 5 -3.04 5 -1 5 C-0.67 3.35 -0.34 1.7 0 0 Z " fill="#F2CC63" transform="translate(192,126)"/>
<path d="M0 0 C4.455 0.99 4.455 0.99 9 2 C9 3.32 9 4.64 9 6 C5.28111761 5.49287967 2.26545761 4.88391785 -1 3 C-0.67 2.01 -0.34 1.02 0 0 Z " fill="#E2E9EC" transform="translate(729,128)"/>
<path d="M0 0 C0 0.99 0 1.98 0 3 C-3.85756507 5.15305957 -6.55129785 6.39253254 -11 6 C-10 3 -10 3 -7.1875 1.3125 C-4 0 -4 0 0 0 Z " fill="#E5EBED" transform="translate(833,127)"/>
<path d="M0 0 C2.375 -0.125 2.375 -0.125 5 0 C7 2 7 2 7 5 C4.03 5 1.06 5 -2 5 C-1.34 3.35 -0.68 1.7 0 0 Z " fill="#223F4E" transform="translate(120,125)"/>
<path d="M0 0 C6.4 -0.49230769 6.4 -0.49230769 9.4375 2 C10.2109375 2.99 10.2109375 2.99 11 4 C7.33333333 4 3.66666667 4 0 4 C-0.33 3.34 -0.66 2.68 -1 2 C-0.67 1.34 -0.34 0.68 0 0 Z " fill="#E7C872" transform="translate(55,121)"/>
<path d="M0 0 C1.98 0 3.96 0 6 0 C4.68 0.33 3.36 0.66 2 1 C2 1.66 2 2.32 2 3 C3.32 3 4.64 3 6 3 C6 3.66 6 4.32 6 5 C4.68 5 3.36 5 2 5 C2 5.66 2 6.32 2 7 C3.32 7 4.64 7 6 7 C6 7.66 6 8.32 6 9 C4.02 9 2.04 9 0 9 C0 6.03 0 3.06 0 0 Z " fill="#B2A56C" transform="translate(1068,115)"/>
<path d="M0 0 C3.95820859 0.56545837 6.6659053 1.80902348 10 4 C9.67 4.99 9.34 5.98 9 7 C5.51375944 6.3543999 2.87501211 5.07639763 0 3 C0 2.01 0 1.02 0 0 Z " fill="#E9EFF0" transform="translate(663,91)"/>
<path d="M0 0 C3.7758544 0.52442422 6.22372155 1.32654667 9 4 C9 4.99 9 5.98 9 7 C5.2241456 6.47557578 2.77627845 5.67345333 0 3 C0 2.01 0 1.02 0 0 Z " fill="#E8EEEF" transform="translate(648,80)"/>
<path d="M0 0 C0 0.99 0 1.98 0 3 C-3.87684087 4.19287411 -6.91621923 5 -11 5 C-10.67 3.68 -10.34 2.36 -10 1 C-6.59437148 0.22157062 -3.49234244 -0.09978121 0 0 Z " fill="#EDF2F3" transform="translate(479,42)"/>
<path d="M0 0 C2.64 0 5.28 0 8 0 C8.33 0.66 8.66 1.32 9 2 C9.99 2.66 10.98 3.32 12 4 C11.34 4.66 10.68 5.32 10 6 C9.01 6 8.02 6 7 6 C7 5.01 7 4.02 7 3 C4.69 3 2.38 3 0 3 C0 2.01 0 1.02 0 0 Z " fill="#83815A" transform="translate(447,136)"/>
<path d="M0 0 C3.86933162 0.57323431 6.15222057 2.38953552 9 5 C9 5.66 9 6.32 9 7 C5.04179141 6.43454163 2.3340947 5.19097652 -1 3 C-0.67 2.01 -0.34 1.02 0 0 Z " fill="#E9EFF1" transform="translate(679,101)"/>
<path d="M0 0 C2.97 0.33 5.94 0.66 9 1 C9 1.66 9 2.32 9 3 C8.01 3.495 8.01 3.495 7 4 C7.33 4.66 7.66 5.32 8 6 C7.34 6.66 6.68 7.32 6 8 C3 7 3 7 1.875 5.125 C1.18238818 3.44294273 0.5752415 1.72572449 0 0 Z " fill="#E1C561" transform="translate(1048,60)"/>
<path d="M0 0 C4.95 0.99 4.95 0.99 10 2 C10.33 2.99 10.66 3.98 11 5 C9.741875 5.04125 8.48375 5.0825 7.1875 5.125 C6.47980469 5.14820313 5.77210938 5.17140625 5.04296875 5.1953125 C3 5 3 5 0 3 C0 2.01 0 1.02 0 0 Z " fill="#E6EDEE" transform="translate(740,0)"/>
<path d="M0 0 C-0.33 0.99 -0.66 1.98 -1 3 C-4.63 3 -8.26 3 -12 3 C-11.67 2.01 -11.34 1.02 -11 0 C-3.375 -1.125 -3.375 -1.125 0 0 Z " fill="#F4F6F6" transform="translate(796,139)"/>
<path d="M0 0 C0.66 0 1.32 0 2 0 C2.33 0.99 2.66 1.98 3 3 C2.67 3.33 2.34 3.66 2 4 C1.76924918 5.34747084 1.58846937 6.70377565 1.4375 8.0625 C1.293125 9.361875 1.14875 10.66125 1 12 C-1.59487555 10.70256222 -2.02269781 9.70637529 -3 7 C-2.68097423 3.65022937 -2.40820361 2.40820361 0 0 Z " fill="#224153" transform="translate(399,130)"/>
<path d="M0 0 C2.4375 0.1875 2.4375 0.1875 5 1 C5.66 2.32 6.32 3.64 7 5 C4.03 5 1.06 5 -2 5 C-1 1 -1 1 0 0 Z " fill="#213F4F" transform="translate(184,125)"/>
<path d="M0 0 C1.67542976 0.28604898 3.34385343 0.61781233 5 1 C5.33 2.32 5.66 3.64 6 5 C3.03 5 0.06 5 -3 5 C-1 1 -1 1 0 0 Z " fill="#213F4F" transform="translate(225,125)"/>
<path d="M0 0 C1.32 0.33 2.64 0.66 4 1 C4 3.97 4 6.94 4 10 C3.01 10 2.02 10 1 10 C-0.1577506 6.52674819 -0.06866652 3.63932552 0 0 Z " fill="#E4EBEC" transform="translate(901,24)"/>
<path d="M0 0 C3.71888239 0.50712033 6.73454239 1.11608215 10 3 C9.67 3.99 9.34 4.98 9 6 C5.65626525 5.44271087 2.96687001 4.64826111 0 3 C0 2.01 0 1.02 0 0 Z " fill="#EAF0F1" transform="translate(875,0)"/>
<path d="M0 0 C0.66 0 1.32 0 2 0 C2 4.62 2 9.24 2 14 C2.66 14 3.32 14 4 14 C4 14.66 4 15.32 4 16 C2.68 15.67 1.36 15.34 0 15 C0 10.05 0 5.1 0 0 Z " fill="#E0C772" transform="translate(364,128)"/>
<path d="M0 0 C2 0.25 2 0.25 4 1 C4.96070434 3.88211302 5.10581883 5.69850044 5.0625 8.6875 C5.05347656 9.49574219 5.04445313 10.30398437 5.03515625 11.13671875 C5.02355469 11.75160156 5.01195313 12.36648437 5 13 C4.67 13 4.34 13 4 13 C3.87625 11.865625 3.7525 10.73125 3.625 9.5625 C3.41875 8.386875 3.2125 7.21125 3 6 C2.34 5.67 1.68 5.34 1 5 C1 6.98 1 8.96 1 11 C0.67 11 0.34 11 0 11 C-0.19406478 9.35492782 -0.38007935 7.70890406 -0.5625 6.0625 C-0.66691406 5.14597656 -0.77132812 4.22945312 -0.87890625 3.28515625 C-0.91886719 2.53105469 -0.95882812 1.77695313 -1 1 C-0.67 0.67 -0.34 0.34 0 0 Z " fill="#D1B561" transform="translate(63,124)"/>
<path d="M0 0 C0.99 0 1.98 0 3 0 C3.33 1.65 3.66 3.3 4 5 C2.35 5 0.7 5 -1 5 C-1 5.66 -1 6.32 -1 7 C-3.64 6.67 -6.28 6.34 -9 6 C-7 4 -7 4 -3.375 3.875 C-1.704375 3.936875 -1.704375 3.936875 0 4 C0 2.68 0 1.36 0 0 Z " fill="#324A51" transform="translate(1069,109)"/>
<path d="M0 0 C2.64 0 5.28 0 8 0 C7.67 0.66 7.34 1.32 7 2 C4.9375 2.625 4.9375 2.625 3 3 C2.67 5.64 2.34 8.28 2 11 C1.34 11 0.68 11 0 11 C0 7.37 0 3.74 0 0 Z " fill="#E6C96C" transform="translate(312,132)"/>
<path d="M0 0 C-1.38801071 3.35435922 -2.88629 5.11290303 -6 7 C-6.99 7 -7.98 7 -9 7 C-8.62607279 4.28902773 -8.18642373 3.17999533 -6.1875 1.25 C-4 0 -4 0 0 0 Z " fill="#EDF3F4" transform="translate(849,117)"/>
<path d="M0 0 C6.625 -0.125 6.625 -0.125 10 1 C10 1.99 10 2.98 10 4 C6.37 3.67 2.74 3.34 -1 3 C-0.67 2.01 -0.34 1.02 0 0 Z " fill="#E9F0F1" transform="translate(288,3)"/>
<path d="M0 0 C0.99 0 1.98 0 3 0 C3 3.63 3 7.26 3 11 C2.01 11 1.02 11 0 11 C0 7.37 0 3.74 0 0 Z " fill="#F3CC62" transform="translate(27,132)"/>
<path d="M0 0 C2.0625 0.4375 2.0625 0.4375 4 1 C4 2.65 4 4.3 4 6 C2.35 6.33 0.7 6.66 -1 7 C-1.04254356 5.00045254 -1.04080783 2.99958364 -1 1 C-0.67 0.67 -0.34 0.34 0 0 Z " fill="#26404B" transform="translate(291,134)"/>
<path d="M0 0 C1.98 0 3.96 0 6 0 C6 1.65 6 3.3 6 5 C3.69 5 1.38 5 -1 5 C-0.67 3.35 -0.34 1.7 0 0 Z " fill="#988F59" transform="translate(415,134)"/>
<path d="M0 0 C1.65 0 3.3 0 5 0 C4.34 2.31 3.68 4.62 3 7 C1.35 6.67 -0.3 6.34 -2 6 C-1.34 4.02 -0.68 2.04 0 0 Z " fill="#D7BE6E" transform="translate(170,121)"/>
<path d="M0 0 C1.98 0 3.96 0 6 0 C4.68 0.33 3.36 0.66 2 1 C2 1.66 2 2.32 2 3 C3.32 3.33 4.64 3.66 6 4 C5.67 5.65 5.34 7.3 5 9 C3.35 8.67 1.7 8.34 0 8 C0 7.67 0 7.34 0 7 C1.65 7 3.3 7 5 7 C5 6.34 5 5.68 5 5 C3.35 4.67 1.7 4.34 0 4 C0 2.68 0 1.36 0 0 Z " fill="#BFAC68" transform="translate(1052,115)"/>
<path d="M0 0 C0.33 0 0.66 0 1 0 C1.9375 3.0625 1.9375 3.0625 2 7 C-0.85308112 11.12294959 -4.46022063 13.93646392 -9 16 C-9 15.01 -9 14.02 -9 13 C-7.5390625 11.89453125 -7.5390625 11.89453125 -5.625 10.8125 C-2.51083378 8.76155417 -1.42993462 7.32429996 -0.5625 3.6875 C-0.376875 2.470625 -0.19125 1.25375 0 0 Z " fill="#D0D9DC" transform="translate(835,58)"/>
<path d="M0 0 C5.02254631 -0.2954439 7.89542386 0.01485372 12 3 C11.67 3.99 11.34 4.98 11 6 C7.37 4.35 3.74 2.7 0 1 C0 0.67 0 0.34 0 0 Z " fill="#E4EBED" transform="translate(327,0)"/>
<path d="M0 0 C1.32 0.33 2.64 0.66 4 1 C3.125 5.875 3.125 5.875 2 7 C-3.52941176 7.23529412 -3.52941176 7.23529412 -6 6 C-6 5.34 -6 4.68 -6 4 C-3.69 4 -1.38 4 1 4 C0.67 2.68 0.34 1.36 0 0 Z " fill="#C9B062" transform="translate(429,137)"/>
<path d="M0 0 C0.66 0 1.32 0 2 0 C2.66 1.65 3.32 3.3 4 5 C4.66 5 5.32 5 6 5 C6 3.35 6 1.7 6 0 C6.33 0 6.66 0 7 0 C7 2.97 7 5.94 7 9 C6.34 9 5.68 9 5 9 C3.375 6.5 3.375 6.5 2 4 C1.34 5.32 0.68 6.64 0 8 C0 5.36 0 2.72 0 0 Z " fill="#DABD62" transform="translate(1078,126)"/>
<path d="M0 0 C1.98 0 3.96 0 6 0 C6 0.66 6 1.32 6 2 C6.78375 1.79375 7.5675 1.5875 8.375 1.375 C9.674375 1.189375 9.674375 1.189375 11 1 C11.66 1.66 12.32 2.32 13 3 C12.34 3.66 11.68 4.32 11 5 C10.01 5 9.02 5 8 5 C8 4.34 8 3.68 8 3 C5.36 2.67 2.72 2.34 0 2 C0 1.34 0 0.68 0 0 Z " fill="#1F3D51" transform="translate(460,130)"/>
<path d="M0 0 C3.3 0.99 6.6 1.98 10 3 C9.34 4.32 8.68 5.64 8 7 C5.36 6.01 2.72 5.02 0 4 C0 2.68 0 1.36 0 0 Z " fill="#DCE2E5" transform="translate(360,14)"/>
<path d="M0 0 C3.3 0 6.6 0 10 0 C9.67 0.99 9.34 1.98 9 3 C5.7 3 2.4 3 -1 3 C-0.67 2.01 -0.34 1.02 0 0 Z " fill="#F7FBFA" transform="translate(269,3)"/>
<path d="M0 0 C0.33 0.66 0.66 1.32 1 2 C-2.96 2.66 -6.92 3.32 -11 4 C-11.33 3.01 -11.66 2.02 -12 1 C-3.61572052 -1.37554585 -3.61572052 -1.37554585 0 0 Z " fill="#E7EDEF" transform="translate(482,16)"/>
<path d="M0 0 C4.7190991 0.46765847 6.91832317 2.34934594 10.3125 5.5625 C11.19550781 6.38878906 12.07851563 7.21507812 12.98828125 8.06640625 C13.65214844 8.70449219 14.31601562 9.34257812 15 10 C10.93968076 10 8.88586698 7.94806989 5.8125 5.5625 C5.25369141 5.14162109 4.69488281 4.72074219 4.11914062 4.28710938 C2.72266701 3.22142438 1.35825845 2.11398251 0 1 C0 0.67 0 0.34 0 0 Z " fill="#E3ECEF" transform="translate(625,0)"/>
<path d="M0 0 C1.32 0 2.64 0 4 0 C4 1.98 4 3.96 4 6 C2.02 6 0.04 6 -2 6 C-1.125 1.125 -1.125 1.125 0 0 Z " fill="#ADA064" transform="translate(1053,139)"/>
<path d="M0 0 C0.66 0 1.32 0 2 0 C2.66 1.65 3.32 3.3 4 5 C4.66 3.35 5.32 1.7 6 0 C6.33 0 6.66 0 7 0 C7 2.31 7 4.62 7 7 C6.34 7 5.68 7 5 7 C5 7.66 5 8.32 5 9 C4.01 8.67 3.02 8.34 2 8 C1.26953125 6.15234375 1.26953125 6.15234375 0.8125 3.9375 C0.65394531 3.20402344 0.49539063 2.47054687 0.33203125 1.71484375 C0.22246094 1.14894531 0.11289063 0.58304688 0 0 Z " fill="#A89F6C" transform="translate(1061,136)"/>
<path d="M0 0 C0.556875 0.226875 1.11375 0.45375 1.6875 0.6875 C1.6875 1.6775 1.6875 2.6675 1.6875 3.6875 C-1.6875 4.3125 -1.6875 4.3125 -5.3125 4.6875 C-5.9725 4.0275 -6.6325 3.3675 -7.3125 2.6875 C-2.88173077 -0.38942308 -2.88173077 -0.38942308 0 0 Z " fill="#E6C462" transform="translate(233.3125,138.3125)"/>
<path d="M0 0 C1.2065625 0.0309375 1.2065625 0.0309375 2.4375 0.0625 C2.4375 1.72916667 2.4375 3.39583333 2.4375 5.0625 C0.1275 5.3925 -2.1825 5.7225 -4.5625 6.0625 C-3.48963568 0.08511307 -3.48963568 0.08511307 0 0 Z " fill="#928E5B" transform="translate(304.5625,131.9375)"/>
<path d="M0 0 C2.97 0 5.94 0 9 0 C9.74926071 3.66305234 10.2380014 6.42355152 9 10 C8.34 10 7.68 10 7 10 C6.67 7.36 6.34 4.72 6 2 C3.03 1.505 3.03 1.505 0 1 C0 0.67 0 0.34 0 0 Z " fill="#979360" transform="translate(1068,114)"/>
<path d="M0 0 C2 0 2 0 3.7265625 1.64453125 C4.35304688 2.35996094 4.97953125 3.07539062 5.625 3.8125 C6.25664063 4.52019531 6.88828125 5.22789063 7.5390625 5.95703125 C9 8 9 8 9 11 C7.87411986 10.04270084 6.7493285 9.08412105 5.625 8.125 C4.99851562 7.59132813 4.37203125 7.05765625 3.7265625 6.5078125 C2.44163349 5.38567993 1.20628025 4.20628025 0 3 C0 2.01 0 1.02 0 0 Z " fill="#D1DBDF" transform="translate(702,51)"/>
<path d="M0 0 C0.99 0.33 1.98 0.66 3 1 C3 1.66 3 2.32 3 3 C3.639375 3.268125 4.27875 3.53625 4.9375 3.8125 C7 5 7 5 8 8 C4 8 4 8 1.75 6.75 C1.1725 6.1725 0.595 5.595 0 5 C0 3.33333333 0 1.66666667 0 0 Z " fill="#D4BC6F" transform="translate(1071,44)"/>
<path d="M0 0 C2.97 0 5.94 0 9 0 C9 1.65 9 3.3 9 5 C7.68 5.33 6.36 5.66 5 6 C5.33 5.01 5.66 4.02 6 3 C4.02 2.34 2.04 1.68 0 1 C0 0.67 0 0.34 0 0 Z " fill="#1C3F5A" transform="translate(879,0)"/>
<path d="M0 0 C2.125 0.9375 2.125 0.9375 4 2 C2 5 2 5 -1 6 C-3.33299825 6.03954234 -5.66708189 6.04401732 -8 6 C-8 5.67 -8 5.34 -8 5 C-4.535 4.505 -4.535 4.505 -1 4 C-1.33 3.01 -1.66 2.02 -2 1 C-1.34 0.67 -0.68 0.34 0 0 Z " fill="#D5BB67" transform="translate(191,138)"/>
<path d="M0 0 C0.66 0 1.32 0 2 0 C3.10844919 3.32534757 2.84454356 5.62182575 2 9 C1.34 9 0.68 9 0 9 C-2 6 -2 6 -2 2 C-1.34 1.34 -0.68 0.68 0 0 Z " fill="#354B53" transform="translate(1082,122)"/>
<path d="M0 0 C1.32 0.33 2.64 0.66 4 1 C3.34 2.65 2.68 4.3 2 6 C-0.31 5.67 -2.62 5.34 -5 5 C-5.33 5.66 -5.66 6.32 -6 7 C-6 6.34 -6 5.68 -6 5 C-6.66 4.67 -7.32 4.34 -8 4 C-6.865625 3.71125 -5.73125 3.4225 -4.5625 3.125 C-3.386875 2.75375 -2.21125 2.3825 -1 2 C-0.67 1.34 -0.34 0.68 0 0 Z " fill="#1B3849" transform="translate(216,122)"/>
<path d="M0 0 C-1.70828921 2.10633718 -2.52148416 2.93801608 -5.26171875 3.29296875 C-6.06222656 3.25816406 -6.86273438 3.22335938 -7.6875 3.1875 C-8.49574219 3.16042969 -9.30398438 3.13335938 -10.13671875 3.10546875 C-10.75160156 3.07066406 -11.36648438 3.03585938 -12 3 C-11 1 -11 1 -9.00390625 0.33203125 C-8.19824219 0.16058594 -7.39257812 -0.01085937 -6.5625 -0.1875 C-5.75941406 -0.36667969 -4.95632813 -0.54585937 -4.12890625 -0.73046875 C-2 -1 -2 -1 0 0 Z " fill="#F6F9F9" transform="translate(455,21)"/>
<path d="M0 0 C2 2 2 2 2 5 C2.66 5 3.32 5 4 5 C4.33 3.35 4.66 1.7 5 0 C5.66 0 6.32 0 7 0 C6.44271087 3.34373475 5.64826111 6.03312999 4 9 C3.34 9 2.68 9 2 9 C1.34 6.03 0.68 3.06 0 0 Z " fill="#B1A66F" transform="translate(1062,125)"/>
<path d="M0 0 C-1 3 -1 3 -2.875 4.1875 C-5 5 -5 5 -8 5 C-8 4.34 -8 3.68 -8 3 C-8.66 2.67 -9.32 2.34 -10 2 C-8.71211992 1.46987262 -7.41953322 0.9511671 -6.125 0.4375 C-5.40570312 0.14746094 -4.68640625 -0.14257812 -3.9453125 -0.44140625 C-2 -1 -2 -1 0 0 Z " fill="#DAE2E6" transform="translate(818,101)"/>
<path d="M0 0 C1.43088528 2.86177057 0.59991697 4.93375773 0 8 C-0.66 8 -1.32 8 -2 8 C-2.33 8.66 -2.66 9.32 -3 10 C-3.75 7.8125 -3.75 7.8125 -4 5 C-2.0625 2.1875 -2.0625 2.1875 0 0 Z " fill="#203F59" transform="translate(1040,103)"/>
<path d="M0 0 C1.65 1.32 3.3 2.64 5 4 C3.35 5.32 1.7 6.64 0 8 C-1.125 6.25 -1.125 6.25 -2 4 C-1.125 1.75 -1.125 1.75 0 0 Z " fill="#223E4E" transform="translate(1059,50)"/>
<path d="M0 0 C2.90802461 2.21928194 4.95312762 3.92969143 7 7 C7.07905064 9.33199388 7.08798769 11.66832622 7 14 C6.67 14 6.34 14 6 14 C5.773125 12.96875 5.54625 11.9375 5.3125 10.875 C4.13528144 6.65591742 1.95161029 4.18463216 -1 1 C-0.67 0.67 -0.34 0.34 0 0 Z " fill="#E3E9EB" transform="translate(830,49)"/>
<path d="M0 0 C0 0.99 0 1.98 0 3 C-3.96 3 -7.92 3 -12 3 C-7.09396701 -0.67952474 -5.82490317 -0.29124516 0 0 Z " fill="#F8FEFE" transform="translate(416,25)"/>
<path d="M0 0 C3.63 0.33 7.26 0.66 11 1 C11 1.33 11 1.66 11 2 C9.35 2 7.7 2 6 2 C6 2.66 6 3.32 6 4 C4.35 4 2.7 4 1 4 C0.67 2.68 0.34 1.36 0 0 Z " fill="#D0D9DE" transform="translate(742,23)"/>
<path d="M0 0 C0.33 0 0.66 0 1 0 C1.66 1.98 2.32 3.96 3 6 C4.98 6 6.96 6 9 6 C9 6.66 9 7.32 9 8 C6.69 8.33 4.38 8.66 2 9 C-0.29013653 5.5647952 -0.17842973 4.014669 0 0 Z " fill="#CEB769" transform="translate(345,135)"/>
<path d="M0 0 C1.08667969 0.29197266 1.08667969 0.29197266 2.1953125 0.58984375 C2.74960938 0.74582031 3.30390625 0.90179688 3.875 1.0625 C3.875 1.7225 3.875 2.3825 3.875 3.0625 C1.16620665 4.41689668 -1.13433268 4.12751451 -4.125 4.0625 C-3.795 3.0725 -3.465 2.0825 -3.125 1.0625 C-4.115 0.7325 -5.105 0.4025 -6.125 0.0625 C-3.57797384 -1.21101308 -2.6967055 -0.73941925 0 0 Z " fill="#F2CC5F" transform="translate(186.125,138.9375)"/>
<path d="M0 0 C0.33 0 0.66 0 1 0 C1 2.97 1 5.94 1 9 C-0.65 9 -2.3 9 -4 9 C-4 7.68 -4 6.36 -4 5 C-2.68 5 -1.36 5 0 5 C0 3.35 0 1.7 0 0 Z " fill="#224052" transform="translate(501,132)"/>
<path d="M0 0 C0.928125 0.2784375 0.928125 0.2784375 1.875 0.5625 C4.04160178 1.23686176 4.04160178 1.23686176 6 0 C6 1.65 6 3.3 6 5 C3.69 5 1.38 5 -1 5 C-0.67 3.35 -0.34 1.7 0 0 Z " fill="#8B855B" transform="translate(517,134)"/>
<path d="M0 0 C0.33 0 0.66 0 1 0 C1 1.98 1 3.96 1 6 C1.66 6 2.32 6 3 6 C3.1875 8.8125 3.1875 8.8125 3 12 C2.01 12.99 1.02 13.98 0 15 C0 10.05 0 5.1 0 0 Z " fill="#183542" transform="translate(342,128)"/>
<path d="M0 0 C2.375 -0.125 2.375 -0.125 5 0 C7 2 7 2 7 6 C5.02 6 3.04 6 1 6 C2.32 5.67 3.64 5.34 5 5 C4.67 4.34 4.34 3.68 4 3 C2.68 3 1.36 3 0 3 C0 2.01 0 1.02 0 0 Z " fill="#E7C667" transform="translate(402,132)"/>
<path d="M0 0 C2.31 0.33 4.62 0.66 7 1 C6.67 1.99 6.34 2.98 6 4 C4.02 4 2.04 4 0 4 C0 2.68 0 1.36 0 0 Z " fill="#EECA6A" transform="translate(261,121)"/>
<path d="M0 0 C1.65 0 3.3 0 5 0 C5 1.65 5 3.3 5 5 C3.35 5 1.7 5 0 5 C0 3.35 0 1.7 0 0 Z " fill="#F1CC62" transform="translate(60,113)"/>
<path d="M0 0 C1.65 0 3.3 0 5 0 C5 1.65 5 3.3 5 5 C3.35 5 1.7 5 0 5 C0 3.35 0 1.7 0 0 Z " fill="#DCC065" transform="translate(52,113)"/>
<path d="M0 0 C1.98 0 3.96 0 6 0 C6 1.32 6 2.64 6 4 C4.02 4 2.04 4 0 4 C0 2.68 0 1.36 0 0 Z " fill="#1E3F53" transform="translate(389,137)"/>
<path d="M0 0 C1.65 0 3.3 0 5 0 C4.34 0.66 3.68 1.32 3 2 C2.54188325 3.97235333 2.54188325 3.97235333 2.375 6.125 C2.25125 7.40375 2.1275 8.6825 2 10 C1.34 10 0.68 10 0 10 C0 6.7 0 3.4 0 0 Z " fill="#F2CB61" transform="translate(526,133)"/>
<path d="M0 0 C3.96 0 7.92 0 12 0 C11.67 1.98 11.34 3.96 11 6 C10.67 4.68 10.34 3.36 10 2 C9.01 2.33 8.02 2.66 7 3 C6.67 2.67 6.34 2.34 6 2 C4.00041636 1.95919217 1.99954746 1.95745644 0 2 C0 1.34 0 0.68 0 0 Z " fill="#2D4653" transform="translate(413,131)"/>
<path d="M0 0 C1.98 0 3.96 0 6 0 C6 1.32 6 2.64 6 4 C4.02 4 2.04 4 0 4 C0 2.68 0 1.36 0 0 Z " fill="#223F4E" transform="translate(388,130)"/>
<path d="M0 0 C2.475 0.495 2.475 0.495 5 1 C5.33 1.99 5.66 2.98 6 4 C5.34 4.66 4.68 5.32 4 6 C3.34 5.67 2.68 5.34 2 5 C1.67 5.66 1.34 6.32 1 7 C0.67 4.69 0.34 2.38 0 0 Z " fill="#1B3B51" transform="translate(1050,67)"/>
<path d="M0 0 C2.97 0.495 2.97 0.495 6 1 C5.67 1.99 5.34 2.98 5 4 C3.35 4 1.7 4 0 4 C0 2.68 0 1.36 0 0 Z " fill="#224153" transform="translate(225,136)"/>
<path d="M0 0 C1.9375 0.3125 1.9375 0.3125 4 1 C4.33 1.99 4.66 2.98 5 4 C2.69 4.33 0.38 4.66 -2 5 C-1.34 3.35 -0.68 1.7 0 0 Z " fill="#264452" transform="translate(186,135)"/>
<path d="M0 0 C5.75 -0.125 5.75 -0.125 8 1 C7.34 2.32 6.68 3.64 6 5 C4.35 5 2.7 5 1 5 C1.99 4.67 2.98 4.34 4 4 C3.04134491 1.66924071 3.04134491 1.66924071 0 0 Z " fill="#D0BB6E" transform="translate(208,121)"/>
<path d="M0 0 C2.475 0.99 2.475 0.99 5 2 C5 1.34 5 0.68 5 0 C5.99 0 6.98 0 8 0 C8.33 1.32 8.66 2.64 9 4 C5.37 4 1.74 4 -2 4 C-2 3.34 -2 2.68 -2 2 C-1.34 2 -0.68 2 0 2 C0 1.34 0 0.68 0 0 Z " fill="#223D4A" transform="translate(55,118)"/>
<path d="M0 0 C0.99 0 1.98 0 3 0 C3.125 3.375 3.125 3.375 3 7 C2.34 7.66 1.68 8.32 1 9 C0.34 8.34 -0.32 7.68 -1 7 C-0.625 3.375 -0.625 3.375 0 0 Z " fill="#F1CB63" transform="translate(1060,41)"/>
<path d="M0 0 C1.65 0 3.3 0 5 0 C5.33 1.32 5.66 2.64 6 4 C3.69 4 1.38 4 -1 4 C-0.67 2.68 -0.34 1.36 0 0 Z " fill="#1A384D" transform="translate(460,137)"/>
<path d="M0 0 C1.65 0 3.3 0 5 0 C4.67 1.32 4.34 2.64 4 4 C2.35 4.33 0.7 4.66 -1 5 C-0.67 3.35 -0.34 1.7 0 0 Z " fill="#EECB6D" transform="translate(184,121)"/>
<path d="M0 0 C2.875 -0.1875 2.875 -0.1875 6 0 C6.66 0.99 7.32 1.98 8 3 C5.69 3.33 3.38 3.66 1 4 C0.67 2.68 0.34 1.36 0 0 Z " fill="#D1DAE0" transform="translate(438,22)"/>
<path d="M0 0 C1.9453125 -0.29296875 1.9453125 -0.29296875 4.125 -0.1875 C5.40375 -0.125625 6.6825 -0.06375 8 0 C6.68 0.33 5.36 0.66 4 1 C4 1.66 4 2.32 4 3 C4.66 3.33 5.32 3.66 6 4 C3.36 3.67 0.72 3.34 -2 3 C-1.34 2.01 -0.68 1.02 0 0 Z " fill="#C8D3DA" transform="translate(385,23)"/>
<path d="M0 0 C4.46840411 0.49648935 5.68987756 0.68987756 9 4 C6.03 3.67 3.06 3.34 0 3 C0 2.01 0 1.02 0 0 Z " fill="#F1F4F4" transform="translate(578,14)"/>
<path d="M0 0 C3.4375 0.25 3.4375 0.25 7 1 C7.66 1.99 8.32 2.98 9 4 C7.72125 4.061875 6.4425 4.12375 5.125 4.1875 C4.40570313 4.22230469 3.68640625 4.25710937 2.9453125 4.29296875 C2.30335938 4.19628906 1.66140625 4.09960938 1 4 C0.34 3.01 -0.32 2.02 -1 1 C-0.67 0.67 -0.34 0.34 0 0 Z " fill="#AD9F61" transform="translate(457,140)"/>
<path d="M0 0 C2.31 0 4.62 0 7 0 C7.33 0.99 7.66 1.98 8 3 C7.01 3.495 7.01 3.495 6 4 C6 3.34 6 2.68 6 2 C4.35 2.33 2.7 2.66 1 3 C0.67 2.01 0.34 1.02 0 0 Z " fill="#224052" transform="translate(516,139)"/>
<path d="M0 0 C2.31 0 4.62 0 7 0 C7 0.99 7 1.98 7 3 C4.69 3 2.38 3 0 3 C0 2.01 0 1.02 0 0 Z " fill="#C2AC61" transform="translate(376,136)"/>
<path d="M0 0 C2.31 0 4.62 0 7 0 C7 0.66 7 1.32 7 2 C6.01 2 5.02 2 4 2 C4 4.31 4 6.62 4 9 C3.67 9 3.34 9 3 9 C3 6.69 3 4.38 3 2 C2.01 2 1.02 2 0 2 C0 1.34 0 0.68 0 0 Z " fill="#BBA966" transform="translate(1051,125)"/>
<path d="M0 0 C0 2.97 0 5.94 0 9 C-2 5 -2 5 -2 3 C-3.32 3 -4.64 3 -6 3 C-6 2.34 -6 1.68 -6 1 C-1.125 0 -1.125 0 0 0 Z " fill="#243A41" transform="translate(1068,104)"/>
<path d="M0 0 C-0.33 1.65 -0.66 3.3 -1 5 C-1.66 4.67 -2.32 4.34 -3 4 C-2.67 3.34 -2.34 2.68 -2 2 C-4.31 2 -6.62 2 -9 2 C-5.945634 -1.054366 -3.9532319 -1.22686507 0 0 Z " fill="#244359" transform="translate(1055,98)"/>
<path d="M0 0 C2.91517292 1.07401108 4.77810176 1.77810176 7 4 C6.34 4 5.68 4 5 4 C4.67 4.66 4.34 5.32 4 6 C2.68 5.34 1.36 4.68 0 4 C0 2.68 0 1.36 0 0 Z " fill="#DCE4E7" transform="translate(629,39)"/>
<path d="M0 0 C2.475 0.99 2.475 0.99 5 2 C5 2.99 5 3.98 5 5 C3.35 5 1.7 5 0 5 C0 3.33333333 0 1.66666667 0 0 Z " fill="#DCE3E6" transform="translate(570,37)"/>
<path d="M0 0 C1.32 0.66 2.64 1.32 4 2 C3.01 3.485 3.01 3.485 2 5 C0.35 4.67 -1.3 4.34 -3 4 C-2.01 2.68 -1.02 1.36 0 0 Z " fill="#EAC862" transform="translate(127,138)"/>
<path d="M0 0 C0.33 0 0.66 0 1 0 C1.06058594 0.90363281 1.12117188 1.80726563 1.18359375 2.73828125 C1.26738281 3.91777344 1.35117187 5.09726563 1.4375 6.3125 C1.51871094 7.48425781 1.59992188 8.65601563 1.68359375 9.86328125 C1.8867371 13.02590958 1.8867371 13.02590958 3 16 C2.01 15.67 1.02 15.34 0 15 C0 10.05 0 5.1 0 0 Z " fill="#E5C565" transform="translate(358,128)"/>
<path d="M0 0 C0.66 0 1.32 0 2 0 C2.66 2.31 3.32 4.62 4 7 C2.68 6.67 1.36 6.34 0 6 C-0.38218767 4.34385343 -0.71395102 2.67542976 -1 1 C-0.67 0.67 -0.34 0.34 0 0 Z " fill="#254550" transform="translate(156,129)"/>
<path d="M0 0 C2.475 0.495 2.475 0.495 5 1 C4.67 2.32 4.34 3.64 4 5 C2.68 4.67 1.36 4.34 0 4 C0 2.68 0 1.36 0 0 Z " fill="#E8EEEF" transform="translate(711,120)"/>
<path d="M0 0 C1.32 0 2.64 0 4 0 C4 1.65 4 3.3 4 5 C2.68 5 1.36 5 0 5 C0 3.35 0 1.7 0 0 Z " fill="#EBC865" transform="translate(242,112)"/>
<path d="M0 0 C2.35171131 0.59861742 4.6859378 1.26924352 7 2 C7.33 2.66 7.66 3.32 8 4 C5.03 3.67 2.06 3.34 -1 3 C-0.67 2.01 -0.34 1.02 0 0 Z " fill="#F1F7F7" transform="translate(731,102)"/>
<path d="M0 0 C0.99 0.33 1.98 0.66 3 1 C2.34 2.98 1.68 4.96 1 7 C0.01 7 -0.98 7 -2 7 C-2 3.89448334 -1.4606285 2.64738916 0 0 Z " fill="#D9E2E5" transform="translate(868,58)"/>
<path d="M0 0 C2.475 0.495 2.475 0.495 5 1 C5.33 2.32 5.66 3.64 6 5 C4.125 4.75 4.125 4.75 2 4 C0.75 1.9375 0.75 1.9375 0 0 Z " fill="#EFF3F4" transform="translate(709,10)"/>
<path d="M0 0 C0.66 0 1.32 0 2 0 C2.042721 1.66611905 2.04063832 3.33382885 2 5 C1 6 1 6 -2.5625 6.0625 C-3.696875 6.041875 -4.83125 6.02125 -6 6 C-2.25 4 -2.25 4 0 4 C0 2.68 0 1.36 0 0 Z " fill="#E8C867" transform="translate(466,137)"/>
<path d="M0 0 C2.31 0 4.62 0 7 0 C6.67 0.99 6.34 1.98 6 3 C4.35 3 2.7 3 1 3 C0.67 2.01 0.34 1.02 0 0 Z " fill="#2E4651" transform="translate(414,139)"/>
<path d="M0 0 C2.31 0 4.62 0 7 0 C7 0.99 7 1.98 7 3 C5.02 3 3.04 3 1 3 C0.67 2.01 0.34 1.02 0 0 Z " fill="#214252" transform="translate(302,139)"/>
<path d="M0 0 C0.66 0.33 1.32 0.66 2 1 C2.33 1.99 2.66 2.98 3 4 C2.01 4.33 1.02 4.66 0 5 C-0.33 4.01 -0.66 3.02 -1 2 C-0.67 1.34 -0.34 0.68 0 0 Z M3 0 C5.97 0.495 5.97 0.495 9 1 C9 1.33 9 1.66 9 2 C7.02 2 5.04 2 3 2 C3 1.34 3 0.68 3 0 Z " fill="#D1B765" transform="translate(93,138)"/>
<path d="M0 0 C0.33 0 0.66 0 1 0 C1.33 3.3 1.66 6.6 2 10 C1.01 10.33 0.02 10.66 -1 11 C-2.60080151 6.99799622 -1.29279692 3.95443764 0 0 Z " fill="#324E57" transform="translate(113,130)"/>
<path d="M0 0 C1.65 0 3.3 0 5 0 C5.33 1.65 5.66 3.3 6 5 C3.69 5 1.38 5 -1 5 C-1 4.67 -1 4.34 -1 4 C0.65 4 2.3 4 4 4 C3.04134491 1.66924071 3.04134491 1.66924071 0 0 Z " fill="#F2CA64" transform="translate(303,133)"/>
<path d="M0 0 C2.12508244 3.18762365 2.5020163 5.26512223 3 9 C2.01 9.33 1.02 9.66 0 10 C0 6.7 0 3.4 0 0 Z " fill="#21404F" transform="translate(1061,125)"/>
<path d="M0 0 C1.98 0 3.96 0 6 0 C6 0.99 6 1.98 6 3 C4.02 3 2.04 3 0 3 C0 2.01 0 1.02 0 0 Z " fill="#F3CC63" transform="translate(55,122)"/>
<path d="M0 0 C0.99 0 1.98 0 3 0 C2.8125 1.875 2.8125 1.875 2 4 C-0.5625 5.25 -0.5625 5.25 -3 6 C-1.125 1.125 -1.125 1.125 0 0 Z " fill="#E2E9EB" transform="translate(829,93)"/>
<path d="M0 0 C1.98 0.495 1.98 0.495 4 1 C4.33 2.32 4.66 3.64 5 5 C2.525 4.01 2.525 4.01 0 3 C0 2.01 0 1.02 0 0 Z " fill="#EFF4F5" transform="translate(658,60)"/>
<path d="M0 0 C-0.66 1.98 -1.32 3.96 -2 6 C-2.99 6 -3.98 6 -5 6 C-4.625 3.5625 -4.625 3.5625 -4 1 C-2 0 -2 0 0 0 Z " fill="#EFF4F5" transform="translate(874,53)"/>
<path d="M0 0 C3.3 0 6.6 0 10 0 C9.67 1.32 9.34 2.64 9 4 C8.01 3.67 7.02 3.34 6 3 C6 2.67 6 2.34 6 2 C3.03 1.505 3.03 1.505 0 1 C0 0.67 0 0.34 0 0 Z " fill="#CAD3D6" transform="translate(211,11)"/>
<path d="M0 0 C1.65 0 3.3 0 5 0 C5 0.66 5 1.32 5 2 C5.66 2.33 6.32 2.66 7 3 C4.36 3 1.72 3 -1 3 C-0.67 2.01 -0.34 1.02 0 0 Z " fill="#EFF4F5" transform="translate(779,4)"/>
<path d="M0 0 C0.33 1.32 0.66 2.64 1 4 C2.98 4.495 2.98 4.495 5 5 C4.01 5 3.02 5 2 5 C2.33 5.99 2.66 6.98 3 8 C2.34 8.66 1.68 9.32 1 10 C-0.60725635 6.78548731 -0.05748185 3.56387464 0 0 Z " fill="#F3CB61" transform="translate(177,129)"/>
<path d="M0 0 C1.65 0 3.3 0 5 0 C5.33 1.65 5.66 3.3 6 5 C5.34 4.34 4.68 3.68 4 3 C1.41645782 2.83312552 1.41645782 2.83312552 -1 3 C-0.67 2.01 -0.34 1.02 0 0 Z " fill="#E7C864" transform="translate(347,132)"/>
<path d="M0 0 C1.74627478 2.61941217 2.38722388 4.03824877 3 7 C1.68 6.67 0.36 6.34 -1 6 C-1.33 4.35 -1.66 2.7 -2 1 C-1.34 0.67 -0.68 0.34 0 0 Z " fill="#334C56" transform="translate(154,121)"/>
<path d="M0 0 C1.98 0 3.96 0 6 0 C5.67 1.32 5.34 2.64 5 4 C2.525 3.01 2.525 3.01 0 2 C0 1.34 0 0.68 0 0 Z " fill="#F0CC66" transform="translate(225,122)"/>
<path d="M0 0 C0.86625 0.3403125 0.86625 0.3403125 1.75 0.6875 C1.75 1.6775 1.75 2.6675 1.75 3.6875 C-0.89 3.3575 -3.53 3.0275 -6.25 2.6875 C-2.80384615 -0.38942308 -2.80384615 -0.38942308 0 0 Z " fill="#CDD5D9" transform="translate(752.25,107.3125)"/>
<path d="M0 0 C1.65 0 3.3 0 5 0 C5.33 0.99 5.66 1.98 6 3 C4.02 3.33 2.04 3.66 0 4 C0 2.68 0 1.36 0 0 Z " fill="#D2B65F" transform="translate(1053,36)"/>
<path d="M0 0 C1.69141656 0.08963062 3.37959602 0.24577676 5.0625 0.4375 C6.44115234 0.59025391 6.44115234 0.59025391 7.84765625 0.74609375 C8.55792969 0.82988281 9.26820313 0.91367187 10 1 C10 1.33 10 1.66 10 2 C8.54364629 2.22174933 7.08477044 2.42698698 5.625 2.625 C4.81289063 2.74101562 4.00078125 2.85703125 3.1640625 2.9765625 C2.44992187 2.98429687 1.73578125 2.99203125 1 3 C0.34 2.34 -0.32 1.68 -1 1 C-0.67 0.67 -0.34 0.34 0 0 Z " fill="#D4DDE0" transform="translate(811,24)"/>
<path d="M0 0 C1.65 0.33 3.3 0.66 5 1 C5 1.66 5 2.32 5 3 C3.35 3.33 1.7 3.66 0 4 C-0.33 3.34 -0.66 2.68 -1 2 C-0.67 1.34 -0.34 0.68 0 0 Z " fill="#D3DADE" transform="translate(466,17)"/>
<path d="M0 0 C1.98 0.495 1.98 0.495 4 1 C4 1.99 4 2.98 4 4 C2.35 3.67 0.7 3.34 -1 3 C-0.67 2.01 -0.34 1.02 0 0 Z " fill="#D1D8DB" transform="translate(324,14)"/>
<path d="M0 0 C1.32 0.33 2.64 0.66 4 1 C3.67 1.99 3.34 2.98 3 4 C1.35 3.67 -0.3 3.34 -2 3 C-1.34 2.01 -0.68 1.02 0 0 Z " fill="#E7EBEC" transform="translate(179,7)"/>
<path d="M0 0 C0.33 0.66 0.66 1.32 1 2 C1.66 2.33 2.32 2.66 3 3 C3.33 3.99 3.66 4.98 4 6 C1.36 5.34 -1.28 4.68 -4 4 C-2.68 3.67 -1.36 3.34 0 3 C0 2.01 0 1.02 0 0 Z " fill="#425656" transform="translate(1057,140)"/>
<path d="M0 0 C0.66 0 1.32 0 2 0 C2 2.64 2 5.28 2 8 C1.67 7.34 1.34 6.68 1 6 C0.01 5.67 -0.98 5.34 -2 5 C-1.34 3.35 -0.68 1.7 0 0 Z " fill="#20404F" transform="translate(88,120)"/>
<path d="M0 0 C2.1519437 3.22791555 2.20086443 4.28400809 2 8 C1.01 7.67 0.02 7.34 -1 7 C-1.33 6.01 -1.66 5.02 -2 4 C-1.34 4 -0.68 4 0 4 C0 2.68 0 1.36 0 0 Z " fill="#DEC166" transform="translate(1057,64)"/>
<path d="M0 0 C2.97 0.495 2.97 0.495 6 1 C5.01 2.32 4.02 3.64 3 5 C1.5 3.625 1.5 3.625 0 2 C0 1.34 0 0.68 0 0 Z " fill="#CEB463" transform="translate(1048,60)"/>
<path d="M0 0 C1.98 0.495 1.98 0.495 4 1 C3.67 2.65 3.34 4.3 3 6 C1.68 5.01 0.36 4.02 -1 3 C-0.67 2.01 -0.34 1.02 0 0 Z " fill="#D7BB65" transform="translate(1069,58)"/>
<path d="M0 0 C1 3 1 3 1 5 C-0.65 4.67 -2.3 4.34 -4 4 C-3.67 3.01 -3.34 2.02 -3 1 C-2.01 0.67 -1.02 0.34 0 0 Z " fill="#F2CC62" transform="translate(1068,52)"/>
<path d="M0 0 C1.65 0.33 3.3 0.66 5 1 C5 1.99 5 2.98 5 4 C2.69 3.67 0.38 3.34 -2 3 C-1.34 2.01 -0.68 1.02 0 0 Z " fill="#D2DBDF" transform="translate(586,16)"/>
</svg>
