<?xml version="1.0" encoding="UTF-8" standalone="no"?>
<!DOCTYPE svg PUBLIC "-//W3C//DTD SVG 1.1//EN" "http://www.w3.org/Graphics/SVG/1.1/DTD/svg11.dtd">
<svg width="100%" height="100%" viewBox="0 0 500 500" version="1.1" xmlns="http://www.w3.org/2000/svg" xmlns:xlink="http://www.w3.org/1999/xlink" xml:space="preserve" xmlns:serif="http://www.serif.com/" style="fill-rule:evenodd;clip-rule:evenodd;stroke-linejoin:round;stroke-miterlimit:2;">
    <g transform="translate(-2660,-500) scale(1.5)">
        <g transform="matrix(0.210799,0.0165796,-0.0160615,0.204212,1388.37,240.763)">
            <path d="M2816.5,819.276C2816.5,819.276 2587,1015.23 2262.22,1423C2255.17,1431.84 2043.46,1294.98 1980.56,1359C1980.56,1359 1928.68,1429.52 2183.32,1561.13L2108.51,1652.02C2108.51,1652.02 2084.51,1696.6 2150.1,1694.03L2238.4,1612.58C2238.4,1612.58 2336.35,1826.51 2434.53,1825.86C2434.53,1825.86 2510.41,1803.34 2367.01,1504.97C2367.01,1504.97 2887.25,1155.65 2974.67,977.893L2816.5,819.276Z" style="fill:rgb(243,205,100);"/>
            <g transform="matrix(1,0,6.93889e-18,1,12.1972,-9.58987)">
                <path d="M2515.09,1053.44C2515.09,1053.44 2565.14,991.102 2633.03,916.743C2674.8,870.99 2775.34,788.624 2775.34,788.624C2775.34,788.624 2278.93,271.401 2153.96,324.556C2153.96,324.556 2070.42,341.653 2122.45,487.024C2122.45,487.024 2146.87,618.705 2515.09,1053.44Z" style="fill:rgb(243,205,100);"/>
            </g>
            <g transform="matrix(-6.81712e-17,-1,-1,6.12323e-17,3814.04,3793)">
                <path d="M2508.38,1061.46C2508.38,1061.46 2542.99,1012.51 2637.76,910.395C2681.01,863.803 2775.34,788.624 2775.34,788.624C2775.34,788.624 2278.93,271.401 2153.96,324.556C2153.96,324.556 2064.29,375.71 2122.45,487.024C2122.45,487.024 2176.75,650.294 2508.38,1061.46Z" style="fill:rgb(243,205,100);"/>
            </g>
            <g transform="matrix(1,0,0,1,18.1546,-23.2775)">
                <g transform="matrix(4.13422,4.29762,-1.85197,1.89834,-71.8426,-6577.25)">
                    <rect x="1211.71" y="1112.41" width="41.618" height="28.478" style="fill:rgb(243,205,100);"/>
                </g>
                <g transform="matrix(1,0,6.93889e-18,1,-86.5926,94.9443)">
                    <path d="M2986.52,677.037C2986.52,677.037 3056.88,614.673 3116.78,668.135C3169.29,715.009 3099.9,791.746 3099.9,791.746C3099.53,793.259 2986.52,677.037 2986.52,677.037Z" style="fill:rgb(243,205,100);"/>
                </g>
                <g transform="matrix(1,0,6.93889e-18,1,-114.857,92.2607)">
                    <path d="M3092.99,652.602L3076.91,592.055C3076.91,592.055 2946.16,508.665 2923.22,524.745C2923.22,524.745 2915.45,583.26 3052.2,660.643L3092.99,652.602Z" style="fill:rgb(243,205,100);"/>
                </g>
                <g transform="matrix(-0.135625,-0.990978,-0.990712,0.134386,4097.24,3779.55)">
                    <path d="M3092.99,652.602L3076.91,592.055C3076.91,592.055 2946.16,508.665 2923.22,524.745C2923.22,524.745 2915.45,583.26 3052.2,660.643L3092.99,652.602Z" style="fill:rgb(243,205,100);"/>
                </g>
            </g>
        </g>
       
        
    </g>
</svg>