<?xml version="1.0" encoding="UTF-8" standalone="no"?>
<!DOCTYPE svg PUBLIC "-//W3C//DTD SVG 1.1//EN" "http://www.w3.org/Graphics/SVG/1.1/DTD/svg11.dtd">
<svg width="100%" height="100%" viewBox="0 0 2481 3508" version="1.1" xmlns="http://www.w3.org/2000/svg" xmlns:xlink="http://www.w3.org/1999/xlink" xml:space="preserve" xmlns:serif="http://www.serif.com/" style="fill-rule:evenodd;clip-rule:evenodd;stroke-linejoin:round;stroke-miterlimit:2;">
    <g transform="matrix(2.29028,0,0,2.29028,-2976.42,-6.52252)">
        <g transform="matrix(0.210799,0.0165796,-0.0160615,0.204212,1388.37,240.763)">
            <path d="M2816.5,819.276C2816.5,819.276 2587,1015.23 2262.22,1423C2255.17,1431.84 2043.46,1294.98 1980.56,1359C1980.56,1359 1928.68,1429.52 2183.32,1561.13L2108.51,1652.02C2108.51,1652.02 2084.51,1696.6 2150.1,1694.03L2238.4,1612.58C2238.4,1612.58 2336.35,1826.51 2434.53,1825.86C2434.53,1825.86 2510.41,1803.34 2367.01,1504.97C2367.01,1504.97 2887.25,1155.65 2974.67,977.893L2816.5,819.276Z" style="fill:rgb(243,205,100);"/>
            <g transform="matrix(1,0,6.93889e-18,1,12.1972,-9.58987)">
                <path d="M2515.09,1053.44C2515.09,1053.44 2565.14,991.102 2633.03,916.743C2674.8,870.99 2775.34,788.624 2775.34,788.624C2775.34,788.624 2278.93,271.401 2153.96,324.556C2153.96,324.556 2070.42,341.653 2122.45,487.024C2122.45,487.024 2146.87,618.705 2515.09,1053.44Z" style="fill:rgb(243,205,100);"/>
            </g>
            <g transform="matrix(-6.81712e-17,-1,-1,6.12323e-17,3814.04,3793)">
                <path d="M2508.38,1061.46C2508.38,1061.46 2542.99,1012.51 2637.76,910.395C2681.01,863.803 2775.34,788.624 2775.34,788.624C2775.34,788.624 2278.93,271.401 2153.96,324.556C2153.96,324.556 2064.29,375.71 2122.45,487.024C2122.45,487.024 2176.75,650.294 2508.38,1061.46Z" style="fill:rgb(243,205,100);"/>
            </g>
            <g transform="matrix(1,0,0,1,18.1546,-23.2775)">
                <g transform="matrix(4.13422,4.29762,-1.85197,1.89834,-71.8426,-6577.25)">
                    <rect x="1211.71" y="1112.41" width="41.618" height="28.478" style="fill:rgb(243,205,100);"/>
                </g>
                <g transform="matrix(1,0,6.93889e-18,1,-86.5926,94.9443)">
                    <path d="M2986.52,677.037C2986.52,677.037 3056.88,614.673 3116.78,668.135C3169.29,715.009 3099.9,791.746 3099.9,791.746C3099.53,793.259 2986.52,677.037 2986.52,677.037Z" style="fill:rgb(243,205,100);"/>
                </g>
                <g transform="matrix(1,0,6.93889e-18,1,-114.857,92.2607)">
                    <path d="M3092.99,652.602L3076.91,592.055C3076.91,592.055 2946.16,508.665 2923.22,524.745C2923.22,524.745 2915.45,583.26 3052.2,660.643L3092.99,652.602Z" style="fill:rgb(243,205,100);"/>
                </g>
                <g transform="matrix(-0.135625,-0.990978,-0.990712,0.134386,4097.24,3779.55)">
                    <path d="M3092.99,652.602L3076.91,592.055C3076.91,592.055 2946.16,508.665 2923.22,524.745C2923.22,524.745 2915.45,583.26 3052.2,660.643L3092.99,652.602Z" style="fill:rgb(243,205,100);"/>
                </g>
            </g>
        </g>
        <g transform="matrix(2.94607,0.0153855,-0.0148897,2.85113,-2749.67,-472.821)">
            <text x="1550.4px" y="509.016px" style="font-family:'DINAlternate-Bold', 'DIN Alternate', sans-serif;font-weight:700;font-size:39.274px;fill:rgb(243,205,100);">PER</text>
            <text x="1550.4px" y="541.404px" style="font-family:'DINAlternate-Bold', 'DIN Alternate', sans-serif;font-weight:700;font-size:39.274px;fill:rgb(243,205,100);">SPEK</text>
            <text x="1550.4px" y="573.792px" style="font-family:'DINAlternate-Bold', 'DIN Alternate', sans-serif;font-weight:700;font-size:39.274px;fill:rgb(243,205,100);">TIVEN</text>
            <g transform="matrix(39.2737,0,0,39.2737,1605.65,606.181)">
            </g>
            <text x="1550.4px" y="606.181px" style="font-family:'DINAlternate-Bold', 'DIN Alternate', sans-serif;font-weight:700;font-size:39.274px;fill:rgb(243,205,100);">e.V<tspan x="1596.23px " y="606.181px ">.</tspan></text>
        </g>
        <g transform="matrix(1.7045,0.033152,-0.0323857,1.6651,87.8895,-1717.22)">
            <path d="M1011.3,1508.09C1071.61,1482.63 1150.97,1479.5 1206.69,1458.04C1224.9,1451.03 1244.72,1440.67 1260.8,1419.46C1316.93,1345.41 1275.33,1201.37 1173.27,1154.76C1132.69,1136.23 1096.79,1139.55 1082.59,1140.75C962.086,1150.93 899.545,1202.38 867.29,1252.74C844.451,1288.4 839.18,1319.89 837.61,1325.91C837.215,1327.42 833.656,1337.88 832.791,1356.28C831.359,1386.72 838.09,1432.57 870.415,1450.38C882.308,1456.93 894.031,1457.67 895.74,1457.95C895.783,1457.95 897.09,1458.2 898.851,1458.45C900.448,1458.68 904.49,1459.42 910.885,1458.55C912.511,1458.33 919.034,1458.29 930.106,1454.05C932.503,1453.13 941.257,1450.24 954.804,1441.8C955.542,1441.34 962.026,1436.94 971.334,1429.38C987.712,1416.06 1001.18,1402.57 1011.76,1394.03C1012.04,1393.8 1014.04,1392.19 1015.69,1391.85C1017.1,1391.55 1018.55,1391.26 1019.98,1391.39C1020.49,1391.43 1023.37,1391.69 1025.98,1393.81C1026.27,1394.04 1027.78,1395.27 1028.89,1397.35C1030.49,1400.35 1030.24,1403.3 1030.2,1403.82C1030.15,1404.35 1029.9,1407.29 1027.82,1409.97C1027.66,1410.18 1027.38,1410.54 1025.51,1412.32C1013.46,1423.84 995.456,1445.87 973.271,1465.4C972.003,1466.52 961.328,1477.11 947.847,1486.34C947.345,1486.69 941.316,1490.76 933.521,1494.55C927.465,1497.49 922.777,1499.1 920.246,1499.92C920.221,1499.93 917.223,1500.79 913.317,1501.53C904.933,1503.12 898.263,1503.13 891.43,1502.75C891.353,1502.75 884.689,1502.17 876.505,1500.24C826.615,1488.46 797.553,1446.07 790.679,1390.1C788.562,1372.87 789.298,1358.15 789.41,1355.68C790.466,1332.3 795.041,1317.47 795.979,1314.34C799.416,1300.27 819.199,1196.86 933.129,1138.09C966.305,1120.98 1015.77,1103.35 1087.52,1099.04C1213.67,1091.47 1299.81,1189.2 1319.07,1292.18C1333.29,1368.21 1310.52,1445.55 1242.38,1481.58C1187.18,1510.76 1106.13,1513.18 1043.54,1532.41C1030.26,1536.49 1018.48,1541.14 1008.22,1546.6C1007.03,1565.56 1006.52,1581.21 1006.02,1596.44C1004.47,1643.51 1005.07,1681.51 1005.09,1691.77C1005.15,1719.95 1005.6,1740 1005.63,1744.38C1005.86,1769.95 1006.13,1779.02 1005.97,1781.73C1005.25,1793.94 996.673,1799.19 989.251,1798.86C980.749,1798.49 975.056,1791.56 970.529,1784.71C959.584,1768.17 939.202,1722.6 930.427,1676.33C920.16,1622.18 924.288,1563.88 978.125,1526.11C982.779,1522.84 987.66,1519.83 992.737,1517.03C995.113,1494.47 996.836,1481.88 997.353,1478.08C997.426,1477.54 997.846,1474.45 1000.7,1472.24C1001.58,1471.55 1002.61,1471.02 1003.68,1470.73C1003.69,1470.73 1007.1,1470.51 1007.1,1470.51C1008.18,1470.89 1009.35,1471.08 1010.33,1471.67C1011.28,1472.24 1012.13,1473.03 1012.8,1473.93C1013.47,1474.84 1013.99,1475.89 1014.27,1476.98C1014.56,1478.11 1014.48,1479.31 1014.49,1480.48C1014.49,1480.87 1013.01,1490.84 1011.3,1508.09ZM988.664,1559.52C966.407,1578 955.773,1603.83 957.32,1641.9C958.643,1674.42 968.83,1709.05 978.585,1734.21C978.963,1722.17 979.783,1697.07 980.47,1683.56C980.859,1675.92 983.286,1628.22 986.273,1588.15C986.851,1580.4 988.246,1564.32 988.426,1562.25C988.505,1561.33 988.585,1560.42 988.664,1559.52Z" style="fill:rgb(21,55,84);"/>
        </g>
    </g>
</svg>
